<svg xmlns="http://www.w3.org/2000/svg" width="300" height="55" viewBox="0 0 124 23"><path d="M34.125 13.508c-.098-.254-.145-.602-.145-1.047 0-.445.153-1.766.454-3.965.304-2.191.453-3.95.453-5.277 0-.313-.02-.739-.067-1.281.785.042 1.274.23 1.473.558.105.192.172.375.2.543.03.172.046.441.046.813 0 .363-.168 1.75-.5 4.156-.34 2.402-.512 4.117-.52 5.144a1.1 1.1 0 01.278-.023c2.234 0 3.902-.156 4.992-.469-.074.602-.277 1.07-.61 1.402-.34.336-.757.504-1.261.504-.148 0-.594-.035-1.34-.101-.75-.067-1.48-.102-2.18-.102-.703 0-1.406.067-2.113.203.137-.46.418-.812.84-1.058zM44.32 8.34a7.574 7.574 0 00-.683 1.605 5.381 5.381 0 00-.246 1.57c0 .497.113.919.332 1.27.222.348.539.524.953.524.582 0 1.125-.32 1.629-.961.508-.645.898-1.422 1.172-2.325.273-.914.41-1.757.41-2.53 0-.77-.028-1.407-.09-1.903.246-.024.398-.035.465-.035.879 0 1.32.453 1.32 1.36 0 .194-.125.995-.379 2.405-.242 1.41-.363 2.54-.363 3.387 0 .844.156 1.594.476 2.246-.652-.133-1.125-.422-1.418-.867-.296-.438-.441-1.074-.441-1.902 0-.149.02-.434.066-.848-.28.988-.773 1.781-1.472 2.383-.711.61-1.403.914-2.07.914-.68 0-1.227-.262-1.641-.781-.414-.512-.621-1.22-.621-2.125 0-.915.172-1.805.511-2.672a5.87 5.87 0 011.516-2.25c.672-.64 1.43-.957 2.27-.957.363 0 .761.074 1.195.222a4.36 4.36 0 00-1.684.856c-.5.418-.902.886-1.207 1.414zm15.602-4.73l.012.187c0 .394-.149 1.683-.442 3.875-.297 2.183-.445 4.008-.445 5.48 0 .653.035 1.16.101 1.524-.253.023-.39.035-.41.035-.465 0-.812-.11-1.043-.324-.218-.215-.332-.563-.332-1.047 0-.48.176-1.961.524-4.43.336-2.465.508-4.226.508-5.281 0-1.055-.07-1.742-.211-2.07.332.043.636.175.918.39.289.207.503.488.644.848.79-.426 1.668-.637 2.633-.637.96 0 1.719.297 2.27.89.554.602.831 1.337.831 2.208 0 1.113-.402 2.113-1.207 3.004-.804.883-1.89 1.324-3.253 1.324-.313 0-.594-.016-.856-.055l-.043-.5c.695 0 1.3-.105 1.816-.312.516-.207.907-.48 1.172-.824.528-.668.79-1.446.79-2.34 0-.645-.204-1.184-.61-1.614-.406-.43-.996-.644-1.773-.644-.465 0-.996.101-1.594.312zm8.992 4.73a7.254 7.254 0 00-.7 1.605 5.63 5.63 0 00-.234 1.57c0 .497.114.919.336 1.27.22.348.536.524.95.524.578 0 1.12-.32 1.629-.961.5-.645.89-1.422 1.164-2.325.277-.914.418-1.757.418-2.53 0-.77-.032-1.407-.098-1.903a7.33 7.33 0 01.465-.035c.879 0 1.316.453 1.316 1.36 0 .194-.12.995-.363 2.405-.254 1.41-.379 2.54-.379 3.387 0 .844.16 1.594.477 2.246-.649-.133-1.122-.422-1.418-.867-.293-.438-.442-1.074-.442-1.902 0-.149.024-.434.067-.848-.282.988-.774 1.781-1.473 2.383-.703.61-1.39.914-2.07.914-.68 0-1.227-.262-1.641-.781-.41-.512-.617-1.22-.617-2.125 0-.915.168-1.805.508-2.672a5.914 5.914 0 011.515-2.25c.68-.64 1.438-.957 2.27-.957.363 0 .761.074 1.199.222a4.235 4.235 0 00-1.672.856 4.895 4.895 0 00-1.207 1.414zm14.824-.68c0 .477-.101 1.32-.3 2.527-.2 1.211-.297 2.094-.297 2.653 0 .547.066.945.199 1.191.133.246.36.453.687.621-.14.016-.336.024-.578.024-.699 0-1.199-.133-1.496-.399-.293-.27-.441-.746-.441-1.425 0-.387.105-1.165.308-2.329.207-1.171.313-2.035.313-2.582 0-.683-.207-1.027-.621-1.027-.664 0-1.352.586-2.059 1.762-.707 1.172-1.062 2.586-1.062 4.242 0 .652.03 1.16.097 1.523a9.54 9.54 0 01-.484.036c-.91 0-1.363-.45-1.363-1.348 0-.207.109-1.008.332-2.395.215-1.394.32-2.504.32-3.328 0-.832-.086-1.593-.266-2.285.614.238 1.043.578 1.285 1.016.243.445.364.949.364 1.511 0 .567-.063 1.223-.188 1.973.34-1.172.875-2.16 1.606-2.96.722-.81 1.402-1.216 2.039-1.216 1.07 0 1.605.739 1.605 2.215zm7.43-1.758c0 .43-.082.73-.246.903-.168.164-.41.242-.73.242h-1.118c-.043.277-.152.922-.32 1.937-.356 1.934-.531 3.391-.531 4.38 0 .988.074 1.644.218 1.968-.59-.223-1.007-.55-1.261-.988-.243-.446-.364-.985-.364-1.617 0-.637.036-1.239.11-1.805.082-.563.191-1.223.332-1.98.148-.766.25-1.376.312-1.825a6.212 6.212 0 00-1.738.5 5.112 5.112 0 01-.023-.457c0-.496.16-.832.488-1.004.332-.168.805-.254 1.426-.254.074-.773.113-1.347.113-1.726 0-.38-.004-.684-.012-.914V2.75c.473.074.836.285 1.094.637.258.34.39.816.39 1.422 0 .312-.027.691-.078 1.136.899 0 1.536-.152 1.903-.457.023.149.035.29.035.414zm2.91 3.72c.34-1.173.863-2.161 1.574-2.962.707-.808 1.371-1.215 1.993-1.215.62 0 1.058.188 1.316.567.258.379.387.894.387 1.55 0 .645-.098 1.555-.297 2.727-.2 1.18-.301 2.04-.301 2.57 0 .536.066.926.2 1.172.132.246.359.453.675.621-.133.016-.32.024-.563.024-.664 0-1.156-.137-1.472-.41-.313-.278-.465-.746-.465-1.414 0-.387.102-1.165.309-2.329.207-1.171.308-2.035.308-2.582 0-.683-.238-1.027-.719-1.027-.28 0-.59.149-.93.445-.34.29-.667.688-.984 1.192-.312.508-.574 1.148-.789 1.926a8.667 8.667 0 00-.32 2.285c0 .758.035 1.316.102 1.68-.25.023-.391.035-.422.035-.489 0-.844-.106-1.075-.313-.234-.207-.355-.535-.355-.98 0-.438.094-1.29.277-2.551.547-3.867.82-6.801.82-8.805 0-.906-.058-1.516-.175-1.828.598.223 1.016.547 1.262.969.242.43.363 1.015.363 1.758 0 .52-.102 1.613-.309 3.273-.199 1.664-.336 2.871-.41 3.621zm11.727-3.364c-.621 0-1.145.355-1.575 1.07-.433.719-.722 1.563-.863 2.527h.434c.547 0 1.02-.078 1.426-.234.398-.156.71-.355.93-.601.413-.485.62-1.024.62-1.625 0-.344-.082-.618-.242-.825-.164-.207-.406-.312-.73-.312zm2.18 6.312c-.473.782-.993 1.328-1.563 1.637-.567.313-1.227.469-1.98.469-.747 0-1.399-.332-1.962-1-.558-.664-.84-1.598-.84-2.809 0-1.37.368-2.597 1.106-3.672a4.157 4.157 0 011.418-1.27 3.946 3.946 0 011.926-.48c1.55 0 2.328.754 2.328 2.262 0 .902-.348 1.613-1.043 2.125-.7.512-1.508.77-2.426.77-.61 0-1.16-.055-1.648-.168a7.138 7.138 0 00-.012.48c0 1.84.543 2.762 1.629 2.762 1.02 0 1.848-.512 2.492-1.528.383.051.574.192.574.422zm-.31-8.293a.498.498 0 01-.167.32.683.683 0 01-.332.192c-.367-.469-.844-.93-1.426-1.383-.586-.46-1.18-.781-1.785-.969.023-.539.273-.968.754-1.28.547.218 1.11.648 1.695 1.292.582.64 1.004 1.246 1.262 1.828zm4.571 5.098c.371-1.352.817-2.344 1.34-2.984.523-.637 1.012-.957 1.46-.957.454 0 .79.168 1.009.5.23.343.343.773.343 1.293 0 .52-.132.968-.398 1.347-.273.38-.668.567-1.184.567-.164 0-.293-.008-.386-.032.351-.511.53-1.03.53-1.558 0-.371-.151-.559-.452-.559-.238 0-.488.137-.754.414-.274.282-.531.672-.777 1.168-.25.504-.457 1.156-.618 1.95-.171.8-.254 1.667-.254 2.593 0 .106.024.547.075 1.324a9.22 9.22 0 01-.465.036c-.906 0-1.36-.45-1.36-1.348 0-.207.11-1.008.332-2.395.215-1.394.32-2.504.32-3.328 0-.832-.089-1.593-.265-2.285.613.238 1.04.578 1.285 1.016.243.445.364.96.364 1.547a9.5 9.5 0 01-.145 1.691zm9.137-3.117c-.621 0-1.149.355-1.586 1.07-.426.719-.711 1.563-.852 2.527h.434c.547 0 1.02-.078 1.426-.234.398-.156.71-.355.93-.601.413-.485.62-1.024.62-1.625 0-.344-.082-.618-.242-.825-.164-.207-.406-.312-.73-.312zm2.18 6.312c-.473.782-.993 1.328-1.563 1.637-.566.313-1.227.469-1.98.469-.747 0-1.399-.332-1.961-1-.559-.664-.84-1.598-.84-2.809 0-1.37.367-2.597 1.105-3.672a4.157 4.157 0 011.418-1.27 3.946 3.946 0 011.926-.48c1.55 0 2.328.754 2.328 2.262 0 .902-.348 1.613-1.043 2.125-.7.512-1.508.77-2.426.77-.609 0-1.16-.055-1.648-.168a7.138 7.138 0 00-.012.48c0 1.84.543 2.762 1.63 2.762 1.019 0 1.847-.512 2.491-1.528.383.051.575.192.575.422zm0 0"/><path d="M12.418 10.492v-.023a1.748 1.748 0 00-1.082-.84h-.043a3.685 3.685 0 00-.766-.149 4.76 4.76 0 01-1.98-.734.231.231 0 00-.258.383c.2.129.402.242.617.344 0 .03-.027.062-.039.097a1.883 1.883 0 001.824 2.399 1.802 1.802 0 001.442-.707c.027.312.008.625-.055.93a.228.228 0 00.145.309c.023.003.05.003.074-.001a.231.231 0 00.219-.156c.097-.414.12-.844.07-1.27a1.515 1.515 0 00-.168-.582zm-1.371-.46a.55.55 0 010 .16.41.41 0 01-.5.28.41.41 0 01-.281-.5.25.25 0 01.03-.054l.184.023c.192.012.383.043.57.09zm.289 1.312a1.417 1.417 0 01-1.07.097c-.75-.214-1.18-1-.97-1.75v-.039c.173.067.349.125.524.172v.016a.877.877 0 00.223.887c.238.23.582.304.89.191a.853.853 0 00.563-.715c.188.094.344.235.457.406a1.324 1.324 0 01-.613.735zm8.332-1.781c0-.036-.023-.063-.04-.098a5.26 5.26 0 00.618-.34.233.233 0 00-.258-.387 4.77 4.77 0 01-1.976.739c-.266.02-.524.066-.778.144H17.2c-.46.121-.855.43-1.09.848v.015c-.093.188-.152.391-.164.602-.054.426-.027.855.07 1.27a.228.228 0 00.22.156.235.235 0 00.19-.094.233.233 0 00.028-.215 3.35 3.35 0 01-.058-.926c.347.446.878.707 1.445.703.183 0 .367-.023.547-.078.476-.136.883-.46 1.125-.902a1.9 1.9 0 00.156-1.438zm-1.629.378l.184-.023c.011.016.02.035.027.055a.4.4 0 01-.273.492.388.388 0 01-.5-.434c.183-.047.375-.078.562-.09zm.223 1.5c-.356.11-.739.075-1.07-.097a1.324 1.324 0 01-.614-.735c.113-.175.27-.312.453-.406a.866.866 0 00.852.734.871.871 0 00.668-.343.872.872 0 00.144-.742v-.02c.18-.047.352-.105.524-.172v.04a1.42 1.42 0 01-.957 1.741zm0 0" fill="#1d1d1b"/><path d="M13.137 10.125c-.051-.695-.617-1.137-1.582-1.21a3.548 3.548 0 01-1.442-.524.23.23 0 00-.32.066c-.07.105-.04.25.066.32.5.32 1.07.524 1.66.598.415.031 1.118.176 1.16.781.008.121.11.219.231.215h.016a.229.229 0 00.21-.246zm3.992-.75a4.03 4.03 0 001.66-.598.232.232 0 00.063-.32.228.228 0 00-.32-.066c-.434.28-.927.46-1.442.53-.957.075-1.535.517-1.582 1.216a.242.242 0 00.055.168.233.233 0 00.16.078h.015a.231.231 0 00.23-.219c.044-.625.759-.758 1.16-.789zM9.543 7.762a.23.23 0 00.215.09.237.237 0 00.183-.153.235.235 0 00-.043-.23l-.98-1.211a.237.237 0 00-.219-.09.231.231 0 00-.18.152.218.218 0 00.043.23zm1.031-.672c.035.09.121.148.215.148a.226.226 0 00.188-.097.226.226 0 00.027-.211l-.434-1.137a.226.226 0 00-.297-.133.234.234 0 00-.132.3zm1.23.035a.23.23 0 00.231-.21l.078-.985a.246.246 0 00-.054-.172.226.226 0 00-.16-.078.222.222 0 00-.169.05.233.233 0 00-.078.16l-.078.989a.235.235 0 00.23.246zm0 0" fill="#1d1d1b"/><path d="M28.2 15.11c-1.2-.387-4.024-.352-6.317-.247 1.535-1.953 1.535-3.836 1.262-4.726-.207-.664-.532-2.34-.118-2.992a.473.473 0 01.36-.239c.543-.07.64-.636.718-1.09.02-.16.055-.32.106-.476.094-.164.223-.309.375-.422.434-.348.77-.797.98-1.309.489-1.21-.168-1.804-.195-1.832a.216.216 0 00-.086-.039h-.043a1.88 1.88 0 00-1.48.227c-.207.101-.465.226-.848.387a2.11 2.11 0 01-2.46-.41C19.07.604 18.097.218 14.28.218 10.465.219 9.5.609 8.13 1.94a2.104 2.104 0 01-2.457.41c-.29-.12-.57-.25-.852-.386a1.873 1.873 0 00-1.476-.227H3.3a.216.216 0 00-.086.04c-.027.027-.684.62-.195 1.831.21.512.546.961.976 1.309.156.113.285.258.375.422.035.164.05.324.055.488.074.457.172 1.02.715 1.09.152.016.289.105.363.238.414.653.09 2.328-.121 2.992-.278.891-.266 2.786 1.265 4.727-2.293-.105-5.117-.137-6.316.246a.232.232 0 00.14.441c1.258-.402 4.614-.308 6.516-.203h.074l.2.211c-2.36.035-3.961.2-4.766.489a.238.238 0 00-.152.18.24.24 0 00.078.222c.066.05.152.066.23.035.793-.289 2.555-.45 5.094-.465.106.09.219.18.328.27-1.988.113-5.226.375-6.457.93a.23.23 0 00-.101.296.23.23 0 00.285.125c1.285-.566 4.976-.816 6.832-.91l.308.223.032.02c-1.934.187-3.258.433-3.934.73a.23.23 0 00-.101.297.222.222 0 00.285.125c.636-.282 1.984-.52 3.914-.703-.008.57.062 1.14.207 1.695.504 1.336 1.187 1.664 1.988 1.73.113.22.273.41.465.559-.43.395-.781.863-1.04 1.383a.23.23 0 10.43.168c.083-.215.333-.617 1.012-1.297.196.101.403.183.614.242a3.562 3.562 0 00-.282 1.063.228.228 0 00.059.168c.039.043.098.07.16.074a.231.231 0 00.23-.219c.04-.34.133-.672.278-.98a5.997 5.997 0 002.012 0c.144.308.238.64.28.98a.229.229 0 00.231.219.246.246 0 00.16-.074.246.246 0 00.059-.168 3.605 3.605 0 00-.273-1.067c.21-.058.418-.14.613-.238.68.676.922 1.078 1.012 1.293a.23.23 0 00.3.133.228.228 0 00.13-.297 4.632 4.632 0 00-1.04-1.383 1.75 1.75 0 00.465-.563c.8-.066 1.484-.39 1.984-1.726.145-.55.211-1.117.2-1.688 1.93.184 3.277.426 3.91.707a.235.235 0 00.34-.238.235.235 0 00-.153-.187c-.683-.309-2.031-.547-4-.735l.246-.172.098-.07c1.844.094 5.594.344 6.895.93a.228.228 0 00.285-.13.23.23 0 00-.102-.296c-1.25-.55-4.492-.809-6.48-.926.117-.09.23-.18.343-.273 2.543.015 4.305.176 5.102.469a.23.23 0 00.29-.145.237.237 0 00-.134-.293c-.8-.289-2.402-.453-4.77-.488l.204-.215h.074c1.89-.094 5.258-.195 6.516.207.129.039.27-.035.308-.168a.248.248 0 00-.164-.309zM15.28 20.956a.227.227 0 00-.312-.086.231.231 0 00-.086.317 4.8 4.8 0 01.195.37 5.501 5.501 0 01-1.601 0 4.72 4.72 0 01.195-.37.235.235 0 00-.086-.317.227.227 0 00-.313.086c0 .016-.132.227-.27.512a2.145 2.145 0 01-1.1-.617h.75a1.844 1.844 0 001.613-.973c.324.598.949.973 1.625.969h.75a2.16 2.16 0 01-1.102.617c-.14-.277-.258-.48-.27-.504zm5.258-5.34l-.023.02c-.258.215-.543.425-.825.617h-.238c.04-.527.137-1.004.328-1.145a.236.236 0 00.04-.332.231.231 0 00-.329-.039c-.308.254-.441.817-.5 1.492h-.187a.226.226 0 00-.239.227.232.232 0 00.227.238h.172v.227h-.059a.233.233 0 00-.246.21.229.229 0 00.207.25h.067c.007.528-.051 1.052-.172 1.563-.434 1.16-.953 1.407-1.707 1.442H15.89a1.396 1.396 0 01-1.391-1.38c.105-.1.227-.187.355-.26.31-.196.758-.47.594-.86-.058-.137-.02-.203.512-.567l.191-.133a.749.749 0 00.399-.617.637.637 0 00-.29-.496.23.23 0 00-.308.07.233.233 0 00.067.31c.023.019.078.07.082.112.003.043-.055.13-.204.235l-.191.133c-.5.34-.895.617-.676 1.101-.023.078-.273.23-.41.313-.121.07-.238.148-.348.234a3.008 3.008 0 00-.347-.234 2.472 2.472 0 01-.406-.29c.214-.515-.18-.785-.68-1.128l-.188-.133c-.148-.106-.203-.188-.203-.235 0-.042.055-.093.078-.113a.23.23 0 00.059-.312.231.231 0 00-.309-.078.652.652 0 00-.293.496c.02.261.172.496.403.617l.191.137c.535.359.57.425.512.562-.164.395.273.664.594.86.125.074.242.152.355.238a1.399 1.399 0 01-1.394 1.398h-.48c-1.145.028-1.845.043-2.392-1.441a5.982 5.982 0 01-.171-1.559h.062a.233.233 0 00.211-.254.23.23 0 00-.25-.21h-.043v-.231h.172c.129 0 .23-.102.23-.23a.232.232 0 00-.23-.235h-.188c-.058-.676-.18-1.234-.5-1.492a.254.254 0 00-.355.039.254.254 0 00.039.355c.188.149.277.618.324 1.145h-.293a10.71 10.71 0 01-.761-.617.167.167 0 00-.047-.043c-.078-.07-.16-.145-.235-.215l.719.047h.02a.231.231 0 00.238-.223.234.234 0 00-.223-.242s-.48-.035-1.23-.074c-1.672-1.914-1.715-3.774-1.45-4.617 0-.024.715-2.356.07-3.38a.948.948 0 00-.675-.44c-.191-.028-.254-.31-.309-.712a2.85 2.85 0 00-.136-.566 1.707 1.707 0 00-.5-.606 2.784 2.784 0 01-.856-1.132c-.308-.73-.07-1.133.031-1.262a.97.97 0 01.637.168c.024.015 2.313 1.707 3.317 1.707H7.5c-.922.664-1.465 1.516-1.465 2.348 0 .125.106.23.23.23a.23.23 0 00.231-.23c0-.872.8-1.825 2.04-2.434.484-.07.948-.227 1.378-.461a.223.223 0 00.121-.2.223.223 0 00-.113-.202.23.23 0 00-.235 0 4.776 4.776 0 01-2.324.488c-.383 0-1.117-.375-1.8-.79.972.438 2.109.227 2.859-.534C9.652 1.078 10.418.668 14.266.668c3.847 0 4.613.414 5.84 1.594.468.48 1.109.75 1.777.758.36-.008.719-.079 1.058-.211-.68.41-1.418.78-1.796.78a4.69 4.69 0 01-2.325-.487.232.232 0 00-.312.093.233.233 0 00.086.313c.433.234.902.394 1.386.465 1.23.62 2.04 1.547 2.04 2.433 0 .125.105.23.23.23a.23.23 0 00.23-.23c0-.836-.543-1.687-1.46-2.347h.132c1.008 0 3.297-1.688 3.32-1.707a.954.954 0 01.633-.168c.102.132.32.535.032 1.261-.184.446-.48.836-.856 1.137a1.633 1.633 0 00-.504.602c-.062.183-.109.375-.132.57-.07.41-.13.684-.31.707a.938.938 0 00-.69.45c-.649 1.023.062 3.359.07 3.378.27.844.223 2.703-1.453 4.613-.735.043-1.227.078-1.227.078a.232.232 0 00-.223.243.231.231 0 00.239.222h.02l.714-.047c-.062.07-.156.145-.246.22zm0 0" fill="#1d1d1b"/><path d="M18.809 7.848a.226.226 0 00.175-.086l.98-1.211a.226.226 0 00.044-.23.231.231 0 00-.18-.153.234.234 0 00-.219.09l-.98 1.21a.234.234 0 00.18.38zm-1.141-.621a.316.316 0 00.086 0c.094 0 .18-.063.215-.149l.433-1.14a.239.239 0 00-.132-.301.237.237 0 00-.301.133l-.434 1.14a.224.224 0 000 .188.239.239 0 00.133.129zm-.941-.098a.236.236 0 00.21-.25l-.078-.988a.227.227 0 00-.25-.211.232.232 0 00-.21.25l.078.984a.226.226 0 00.078.16c.047.04.11.059.172.055zm0 0M10.938 17.84c0 .18-.145.328-.325.328a.326.326 0 010-.652c.18 0 .325.148.325.324zm0 0M11.047 18.945a.323.323 0 11-.649 0 .323.323 0 11.649 0zm0 0M11.887 19.672a.323.323 0 11-.645 0 .323.323 0 11.645 0zm0 0M12.172 18.543a.323.323 0 11-.649 0 .323.323 0 11.649 0zm0 0M13.07 19.113a.323.323 0 11-.648 0 .323.323 0 11.648 0zm0 0M18.238 17.84c0 .18-.144.328-.324.328a.326.326 0 010-.652c.18 0 .324.148.324.324zm0 0M18.129 18.945a.323.323 0 11-.645 0 .323.323 0 11.645 0zm0 0M17.29 19.672a.323.323 0 11-.65 0 .323.323 0 11.65 0zm0 0M17.004 18.543a.323.323 0 11-.645 0 .323.323 0 11.645 0zm0 0M16.105 19.113a.323.323 0 11-.644 0 .323.323 0 11.645 0zm0 0M15.36 12.48a.206.206 0 00-.169.055.221.221 0 00-.082.156 2.845 2.845 0 01-.843 1.668 2.828 2.828 0 01-.84-1.671.232.232 0 00-.461.039c.11.824.52 1.578 1.144 2.12.043.036.094.051.145.055a.235.235 0 00.144-.054 3.393 3.393 0 001.149-2.121.228.228 0 00-.188-.247zm-4.055.832a.232.232 0 00-.309.086c-.062.106-.14.223-.223.344-.414.598-1.035 1.508-.16 2.473a.232.232 0 00.34-.309c-.582-.633-.285-1.183.195-1.886.09-.133.176-.258.247-.375a.25.25 0 00.027-.184.248.248 0 00-.117-.149zm6.246.086a.227.227 0 00-.313-.085.231.231 0 00-.086.316c.067.117.153.242.243.375.484.703.777 1.254.199 1.887a.232.232 0 00.11.406.228.228 0 00.226-.098c.879-.957.254-1.855-.157-2.472a5.406 5.406 0 01-.222-.329zm-5.781 2.946a.235.235 0 00-.149-.293.232.232 0 00-.289.152c-.18.574.066 1.195.586 1.488a.23.23 0 00.316-.082.234.234 0 00-.086-.316.82.82 0 01-.378-.95zm4.84 1.34c.519-.297.761-.918.585-1.493a.23.23 0 00-.289-.148.236.236 0 00-.152.293.81.81 0 01-.375.937.231.231 0 00-.086.317c.062.11.203.148.316.086zm-1.458-1.293c-.226.257-.55.406-.89.406-.34 0-.66-.149-.887-.406a.235.235 0 10-.355.309 1.628 1.628 0 002.484 0 .235.235 0 10-.356-.31zm-6.879-4.524a.226.226 0 00-.242-.008.227.227 0 00-.117.211.24.24 0 00.137.203c.808.446 1.16 1.11 1.16 1.348 0 .129.101.23.23.23a.23.23 0 00.23-.23c0-.48-.523-1.27-1.398-1.754zm12.325.094a.232.232 0 00-.309-.094c-.883.485-1.41 1.274-1.41 1.758 0 .125.101.23.23.23.125 0 .23-.105.23-.23 0-.238.349-.906 1.157-1.352a.23.23 0 00.102-.313zm0 0" fill="#1d1d1b"/><path d="M35.098 17.625l-.282-.707h-1.074l-.277.707h-.18l.895-2.258h.203l.894 2.258zm-1.293-.863h.949l-.39-.985-.083-.242h-.004l-.082.235zm4.398-.242h.922v1.105h-.137l-.008-.395a.687.687 0 01-.285.32 1.02 1.02 0 01-.484.11.963.963 0 01-.535-.144.894.894 0 01-.356-.403 1.45 1.45 0 01-.125-.617c0-.234.043-.441.13-.617a.926.926 0 01.359-.402.972.972 0 01.535-.145c.23 0 .418.047.562.137.145.094.254.23.328.418l-.16.082a.632.632 0 00-.261-.356.82.82 0 00-.47-.125.8.8 0 00-.44.125.76.76 0 00-.294.348c-.074.152-.109.328-.109.535 0 .313.074.559.223.738.152.18.355.27.617.27a.859.859 0 00.418-.098.633.633 0 00.25-.258.732.732 0 00.082-.343v-.121h-.762zm3.395.949h1.414v.156h-1.586v-2.258h1.535v.156h-1.363v.872h1.074v.164h-1.074zm5.332-2.102v2.258h-.211l-1.188-1.77-.168-.3h-.004l.012.28v1.79h-.164v-2.258h.215l1.187 1.77.168.3-.007-.28v-1.79zm4.183 1.688a.83.83 0 01-.328.445c-.16.105-.347.16-.566.16a.985.985 0 01-.54-.144.926.926 0 01-.359-.403 1.45 1.45 0 01-.12-.617c0-.234.038-.441.12-.617a.926.926 0 01.36-.402.968.968 0 01.53-.145c.45 0 .743.188.876.559l-.168.078a.667.667 0 00-.25-.36.788.788 0 00-.445-.12.8.8 0 00-.743.472 1.321 1.321 0 00-.101.535c0 .207.035.383.101.535a.784.784 0 00.739.473c.18 0 .336-.047.46-.137a.71.71 0 00.266-.379zm2.371.414h1.418v.156h-1.586v-2.258h1.532v.156h-1.364v.872h1.078v.164h-1.078zm7.082-2.102c.36 0 .637.094.829.285.195.192.292.465.292.828 0 .368-.097.653-.292.848-.192.2-.47.297-.829.297h-.707v-2.258zm.016 2.102c.3 0 .527-.086.688-.258.16-.168.242-.414.242-.73 0-.31-.082-.544-.242-.708-.16-.168-.387-.25-.688-.25h-.55v1.946zm3.543 0h1.418v.156h-1.586v-2.258h1.531v.156h-1.363v.872h1.078v.164h-1.078zm7.488-1.426l-.453 1.582h-.21l-.7-2.258h.184l.62 2.117.59-2.117h.196l.59 2.121.629-2.12h.171l-.699 2.257h-.21l-.454-1.582-.125-.488h-.004zm3.942 1.426h1.422v.156h-1.59v-2.258h1.535v.156h-1.367v.872h1.082v.164h-1.082zm3.613.156v-2.258h.793c.246 0 .43.051.55.153.122.105.18.253.18.445a.531.531 0 01-.105.336.526.526 0 01-.305.18.546.546 0 01.344.18.517.517 0 01.129.355c0 .195-.07.343-.207.449-.137.105-.332.16-.586.16zm.172-1.219h.625c.363 0 .547-.144.547-.441 0-.293-.184-.442-.547-.442h-.625zm0 1.063h.652c.192 0 .336-.04.434-.117.097-.079.144-.192.144-.336 0-.149-.047-.258-.144-.336-.098-.078-.242-.114-.434-.114h-.652zm7.148-2.102c.36 0 .637.094.828.285.196.192.293.465.293.828 0 .368-.097.653-.293.848-.191.2-.468.297-.828.297h-.707v-2.258zm.016 2.102c.3 0 .527-.086.687-.258.16-.168.239-.414.239-.73 0-.31-.078-.544-.239-.708-.16-.168-.386-.25-.687-.25h-.55v1.946zm3.543 0h1.418v.156h-1.586v-2.258h1.531v.156h-1.363v.872h1.078v.164h-1.078zm4.305-2.137c.421 0 .703.168.847.5l-.144.121a.678.678 0 00-.258-.355.81.81 0 00-.442-.11.843.843 0 00-.343.067.49.49 0 00-.223.164.405.405 0 00-.078.238c0 .09.023.16.066.215.043.058.118.11.22.148.105.04.245.075.429.11.289.047.496.12.62.218a.47.47 0 01.18.395.533.533 0 01-.101.324.689.689 0 01-.297.215c-.129.05-.277.078-.441.078-.235 0-.434-.047-.598-.144a.709.709 0 01-.332-.399l.152-.117c.043.164.137.29.27.375.14.086.308.129.512.129a.88.88 0 00.476-.121.372.372 0 00.188-.328.33.33 0 00-.157-.29c-.097-.07-.273-.128-.523-.167a2.35 2.35 0 01-.5-.137.584.584 0 01-.262-.195.478.478 0 01-.082-.29c0-.117.035-.222.102-.32a.632.632 0 01.285-.234c.125-.059.27-.09.434-.09zm3.28.035v2.258h-.171v-2.258zm3.274 1.153h.918v1.105h-.136l-.004-.395a.696.696 0 01-.29.32.998.998 0 01-.484.11.972.972 0 01-.535-.144.91.91 0 01-.352-.403 1.45 1.45 0 01-.125-.617c0-.234.043-.441.13-.617a.902.902 0 01.359-.402.972.972 0 01.535-.145c.226 0 .414.047.562.137.145.094.254.23.325.418l-.157.082a.65.65 0 00-.261-.356.838.838 0 00-.47-.125.79.79 0 00-.737.473c-.07.152-.106.328-.106.535 0 .313.074.559.223.738.148.18.355.27.617.27.164 0 .3-.035.414-.098a.644.644 0 00.254-.258.732.732 0 00.082-.343v-.121h-.762zm4.946-1.153v2.258h-.211l-1.192-1.77-.164-.3h-.004l.008.28v1.79h-.16v-2.258h.21l1.192 1.77.168.3-.008-.28v-1.79zm0 0"/></svg>