<?xml version="1.0" encoding="UTF-8"?>
<svg xmlns="http://www.w3.org/2000/svg" xmlns:xlink="http://www.w3.org/1999/xlink" width="300px" height="55px" viewBox="0 0 124 23" version="1.1">
<g id="surface1">
<path style=" stroke:none;fill-rule:nonzero;fill:rgb(0%,0%,0%);fill-opacity:1;" d="M 34.125 13.507812 C 34.027344 13.253906 33.980469 12.90625 33.980469 12.460938 C 33.980469 12.015625 34.132812 10.695312 34.433594 8.496094 C 34.738281 6.304688 34.886719 4.546875 34.886719 3.21875 C 34.886719 2.90625 34.867188 2.480469 34.820312 1.9375 C 35.605469 1.980469 36.09375 2.167969 36.292969 2.496094 C 36.398438 2.6875 36.464844 2.871094 36.492188 3.039062 C 36.523438 3.210938 36.539062 3.480469 36.539062 3.851562 C 36.539062 4.214844 36.371094 5.601562 36.039062 8.007812 C 35.699219 10.410156 35.527344 12.125 35.519531 13.152344 C 35.570312 13.136719 35.664062 13.128906 35.796875 13.128906 C 38.03125 13.128906 39.699219 12.972656 40.789062 12.660156 C 40.714844 13.261719 40.511719 13.730469 40.179688 14.0625 C 39.839844 14.398438 39.421875 14.566406 38.917969 14.566406 C 38.769531 14.566406 38.324219 14.53125 37.578125 14.464844 C 36.828125 14.398438 36.097656 14.363281 35.398438 14.363281 C 34.695312 14.363281 33.992188 14.429688 33.285156 14.566406 C 33.421875 14.105469 33.703125 13.753906 34.125 13.507812 Z M 44.320312 8.339844 C 44.027344 8.859375 43.796875 9.394531 43.636719 9.945312 C 43.472656 10.484375 43.390625 11.007812 43.390625 11.515625 C 43.390625 12.011719 43.503906 12.433594 43.722656 12.785156 C 43.945312 13.132812 44.261719 13.308594 44.675781 13.308594 C 45.257812 13.308594 45.800781 12.988281 46.304688 12.347656 C 46.8125 11.703125 47.203125 10.925781 47.476562 10.023438 C 47.75 9.109375 47.886719 8.265625 47.886719 7.492188 C 47.886719 6.722656 47.859375 6.085938 47.796875 5.589844 C 48.042969 5.566406 48.195312 5.554688 48.261719 5.554688 C 49.140625 5.554688 49.582031 6.007812 49.582031 6.914062 C 49.582031 7.109375 49.457031 7.910156 49.203125 9.320312 C 48.960938 10.730469 48.839844 11.859375 48.839844 12.707031 C 48.839844 13.550781 48.996094 14.300781 49.316406 14.953125 C 48.664062 14.820312 48.191406 14.53125 47.898438 14.085938 C 47.601562 13.648438 47.457031 13.011719 47.457031 12.183594 C 47.457031 12.035156 47.476562 11.75 47.523438 11.335938 C 47.242188 12.324219 46.75 13.117188 46.050781 13.71875 C 45.339844 14.328125 44.648438 14.632812 43.980469 14.632812 C 43.300781 14.632812 42.753906 14.371094 42.339844 13.851562 C 41.925781 13.339844 41.71875 12.632812 41.71875 11.726562 C 41.71875 10.8125 41.890625 9.921875 42.230469 9.054688 C 42.5625 8.183594 43.066406 7.433594 43.746094 6.804688 C 44.417969 6.164062 45.175781 5.847656 46.015625 5.847656 C 46.378906 5.847656 46.777344 5.921875 47.210938 6.070312 C 46.597656 6.226562 46.039062 6.511719 45.527344 6.925781 C 45.027344 7.34375 44.625 7.8125 44.320312 8.339844 Z M 59.921875 3.609375 L 59.933594 3.796875 C 59.933594 4.191406 59.785156 5.480469 59.492188 7.671875 C 59.195312 9.855469 59.046875 11.679688 59.046875 13.152344 C 59.046875 13.804688 59.082031 14.3125 59.148438 14.675781 C 58.894531 14.699219 58.757812 14.710938 58.738281 14.710938 C 58.273438 14.710938 57.925781 14.601562 57.695312 14.386719 C 57.476562 14.171875 57.363281 13.824219 57.363281 13.339844 C 57.363281 12.859375 57.539062 11.378906 57.886719 8.910156 C 58.222656 6.445312 58.394531 4.683594 58.394531 3.628906 C 58.394531 2.574219 58.324219 1.886719 58.183594 1.558594 C 58.515625 1.601562 58.820312 1.734375 59.101562 1.949219 C 59.390625 2.15625 59.605469 2.4375 59.746094 2.796875 C 60.535156 2.371094 61.414062 2.160156 62.378906 2.160156 C 63.339844 2.160156 64.097656 2.457031 64.648438 3.050781 C 65.203125 3.652344 65.480469 4.386719 65.480469 5.257812 C 65.480469 6.371094 65.078125 7.371094 64.273438 8.261719 C 63.46875 9.144531 62.382812 9.585938 61.019531 9.585938 C 60.707031 9.585938 60.425781 9.570312 60.164062 9.53125 L 60.121094 9.03125 C 60.816406 9.03125 61.421875 8.925781 61.9375 8.71875 C 62.453125 8.511719 62.84375 8.238281 63.109375 7.894531 C 63.636719 7.226562 63.898438 6.449219 63.898438 5.554688 C 63.898438 4.910156 63.695312 4.371094 63.289062 3.941406 C 62.882812 3.511719 62.292969 3.296875 61.515625 3.296875 C 61.050781 3.296875 60.519531 3.398438 59.921875 3.609375 Z M 68.914062 8.339844 C 68.609375 8.859375 68.378906 9.394531 68.214844 9.945312 C 68.058594 10.484375 67.980469 11.007812 67.980469 11.515625 C 67.980469 12.011719 68.09375 12.433594 68.316406 12.785156 C 68.535156 13.132812 68.851562 13.308594 69.265625 13.308594 C 69.84375 13.308594 70.386719 12.988281 70.894531 12.347656 C 71.394531 11.703125 71.785156 10.925781 72.058594 10.023438 C 72.335938 9.109375 72.476562 8.265625 72.476562 7.492188 C 72.476562 6.722656 72.445312 6.085938 72.378906 5.589844 C 72.628906 5.566406 72.785156 5.554688 72.84375 5.554688 C 73.722656 5.554688 74.160156 6.007812 74.160156 6.914062 C 74.160156 7.109375 74.039062 7.910156 73.796875 9.320312 C 73.542969 10.730469 73.417969 11.859375 73.417969 12.707031 C 73.417969 13.550781 73.578125 14.300781 73.894531 14.953125 C 73.246094 14.820312 72.773438 14.53125 72.476562 14.085938 C 72.183594 13.648438 72.035156 13.011719 72.035156 12.183594 C 72.035156 12.035156 72.058594 11.75 72.101562 11.335938 C 71.820312 12.324219 71.328125 13.117188 70.628906 13.71875 C 69.925781 14.328125 69.238281 14.632812 68.558594 14.632812 C 67.878906 14.632812 67.332031 14.371094 66.917969 13.851562 C 66.507812 13.339844 66.300781 12.632812 66.300781 11.726562 C 66.300781 10.8125 66.46875 9.921875 66.808594 9.054688 C 67.140625 8.183594 67.648438 7.433594 68.324219 6.804688 C 69.003906 6.164062 69.761719 5.847656 70.59375 5.847656 C 70.957031 5.847656 71.355469 5.921875 71.792969 6.070312 C 71.179688 6.226562 70.621094 6.511719 70.121094 6.925781 C 69.609375 7.34375 69.207031 7.8125 68.914062 8.339844 Z M 83.738281 7.660156 C 83.738281 8.136719 83.636719 8.980469 83.4375 10.1875 C 83.238281 11.398438 83.140625 12.28125 83.140625 12.839844 C 83.140625 13.386719 83.207031 13.785156 83.339844 14.03125 C 83.472656 14.277344 83.699219 14.484375 84.027344 14.652344 C 83.886719 14.667969 83.691406 14.675781 83.449219 14.675781 C 82.75 14.675781 82.25 14.542969 81.953125 14.277344 C 81.660156 14.007812 81.511719 13.53125 81.511719 12.851562 C 81.511719 12.464844 81.617188 11.6875 81.820312 10.523438 C 82.027344 9.351562 82.132812 8.488281 82.132812 7.941406 C 82.132812 7.257812 81.925781 6.914062 81.511719 6.914062 C 80.847656 6.914062 80.160156 7.5 79.453125 8.675781 C 78.746094 9.847656 78.390625 11.261719 78.390625 12.917969 C 78.390625 13.570312 78.421875 14.078125 78.488281 14.441406 C 78.214844 14.464844 78.054688 14.476562 78.003906 14.476562 C 77.09375 14.476562 76.640625 14.027344 76.640625 13.128906 C 76.640625 12.921875 76.75 12.121094 76.972656 10.734375 C 77.1875 9.339844 77.292969 8.230469 77.292969 7.40625 C 77.292969 6.574219 77.207031 5.8125 77.027344 5.121094 C 77.640625 5.359375 78.070312 5.699219 78.3125 6.136719 C 78.554688 6.582031 78.675781 7.085938 78.675781 7.648438 C 78.675781 8.214844 78.613281 8.871094 78.488281 9.621094 C 78.828125 8.449219 79.363281 7.460938 80.09375 6.660156 C 80.816406 5.851562 81.496094 5.445312 82.132812 5.445312 C 83.203125 5.445312 83.738281 6.183594 83.738281 7.660156 Z M 91.167969 5.902344 C 91.167969 6.332031 91.085938 6.632812 90.921875 6.804688 C 90.753906 6.96875 90.511719 7.046875 90.191406 7.046875 L 89.074219 7.046875 C 89.03125 7.324219 88.921875 7.96875 88.753906 8.984375 C 88.398438 10.917969 88.222656 12.375 88.222656 13.363281 C 88.222656 14.351562 88.296875 15.007812 88.441406 15.332031 C 87.851562 15.109375 87.433594 14.78125 87.179688 14.34375 C 86.9375 13.898438 86.816406 13.359375 86.816406 12.726562 C 86.816406 12.089844 86.851562 11.488281 86.925781 10.921875 C 87.007812 10.359375 87.117188 9.699219 87.257812 8.941406 C 87.40625 8.175781 87.507812 7.566406 87.570312 7.117188 C 86.976562 7.195312 86.398438 7.363281 85.832031 7.617188 C 85.816406 7.445312 85.808594 7.292969 85.808594 7.160156 C 85.808594 6.664062 85.96875 6.328125 86.296875 6.15625 C 86.628906 5.988281 87.101562 5.902344 87.722656 5.902344 C 87.796875 5.128906 87.835938 4.554688 87.835938 4.175781 C 87.835938 3.796875 87.832031 3.492188 87.824219 3.261719 C 87.824219 3.03125 87.824219 2.863281 87.824219 2.75 C 88.296875 2.824219 88.660156 3.035156 88.917969 3.386719 C 89.175781 3.726562 89.308594 4.203125 89.308594 4.808594 C 89.308594 5.121094 89.28125 5.5 89.230469 5.945312 C 90.128906 5.945312 90.765625 5.792969 91.132812 5.488281 C 91.15625 5.636719 91.167969 5.777344 91.167969 5.902344 Z M 94.078125 9.621094 C 94.417969 8.449219 94.941406 7.460938 95.652344 6.660156 C 96.359375 5.851562 97.023438 5.445312 97.644531 5.445312 C 98.265625 5.445312 98.703125 5.632812 98.960938 6.011719 C 99.21875 6.390625 99.347656 6.90625 99.347656 7.5625 C 99.347656 8.207031 99.25 9.117188 99.050781 10.289062 C 98.851562 11.46875 98.75 12.328125 98.75 12.859375 C 98.75 13.394531 98.816406 13.785156 98.949219 14.03125 C 99.082031 14.277344 99.308594 14.484375 99.625 14.652344 C 99.492188 14.667969 99.304688 14.675781 99.0625 14.675781 C 98.398438 14.675781 97.90625 14.539062 97.589844 14.265625 C 97.277344 13.988281 97.125 13.519531 97.125 12.851562 C 97.125 12.464844 97.226562 11.6875 97.433594 10.523438 C 97.640625 9.351562 97.742188 8.488281 97.742188 7.941406 C 97.742188 7.257812 97.503906 6.914062 97.023438 6.914062 C 96.742188 6.914062 96.433594 7.0625 96.09375 7.359375 C 95.753906 7.648438 95.425781 8.046875 95.109375 8.550781 C 94.796875 9.058594 94.535156 9.699219 94.320312 10.476562 C 94.109375 11.25 94 12.011719 94 12.761719 C 94 13.519531 94.035156 14.078125 94.101562 14.441406 C 93.851562 14.464844 93.710938 14.476562 93.679688 14.476562 C 93.191406 14.476562 92.835938 14.371094 92.605469 14.164062 C 92.371094 13.957031 92.25 13.628906 92.25 13.183594 C 92.25 12.746094 92.34375 11.894531 92.527344 10.632812 C 93.074219 6.765625 93.347656 3.832031 93.347656 1.828125 C 93.347656 0.921875 93.289062 0.3125 93.171875 0 C 93.769531 0.222656 94.1875 0.546875 94.433594 0.96875 C 94.675781 1.398438 94.796875 1.984375 94.796875 2.726562 C 94.796875 3.246094 94.695312 4.339844 94.488281 6 C 94.289062 7.664062 94.152344 8.871094 94.078125 9.621094 Z M 105.804688 6.257812 C 105.183594 6.257812 104.660156 6.613281 104.230469 7.328125 C 103.796875 8.046875 103.507812 8.890625 103.367188 9.855469 L 103.800781 9.855469 C 104.347656 9.855469 104.820312 9.777344 105.226562 9.621094 C 105.625 9.464844 105.9375 9.265625 106.15625 9.019531 C 106.570312 8.535156 106.777344 7.996094 106.777344 7.394531 C 106.777344 7.050781 106.695312 6.777344 106.535156 6.570312 C 106.371094 6.363281 106.128906 6.257812 105.804688 6.257812 Z M 107.984375 12.570312 C 107.511719 13.351562 106.992188 13.898438 106.421875 14.207031 C 105.855469 14.519531 105.195312 14.675781 104.441406 14.675781 C 103.695312 14.675781 103.042969 14.34375 102.480469 13.675781 C 101.921875 13.011719 101.640625 12.078125 101.640625 10.867188 C 101.640625 9.496094 102.007812 8.269531 102.746094 7.195312 C 103.109375 6.671875 103.582031 6.25 104.164062 5.925781 C 104.75 5.605469 105.390625 5.445312 106.089844 5.445312 C 107.640625 5.445312 108.417969 6.199219 108.417969 7.707031 C 108.417969 8.609375 108.070312 9.320312 107.375 9.832031 C 106.675781 10.34375 105.867188 10.601562 104.949219 10.601562 C 104.339844 10.601562 103.789062 10.546875 103.300781 10.433594 C 103.292969 10.539062 103.289062 10.699219 103.289062 10.914062 C 103.289062 12.753906 103.832031 13.675781 104.917969 13.675781 C 105.9375 13.675781 106.765625 13.164062 107.410156 12.148438 C 107.792969 12.199219 107.984375 12.339844 107.984375 12.570312 Z M 107.675781 4.277344 C 107.667969 4.386719 107.613281 4.496094 107.507812 4.597656 C 107.414062 4.695312 107.300781 4.757812 107.175781 4.789062 C 106.808594 4.320312 106.332031 3.859375 105.75 3.40625 C 105.164062 2.945312 104.570312 2.625 103.964844 2.4375 C 103.988281 1.898438 104.238281 1.46875 104.71875 1.15625 C 105.265625 1.375 105.828125 1.804688 106.414062 2.449219 C 106.996094 3.089844 107.417969 3.695312 107.675781 4.277344 Z M 112.246094 9.375 C 112.617188 8.023438 113.0625 7.03125 113.585938 6.390625 C 114.109375 5.753906 114.597656 5.433594 115.046875 5.433594 C 115.5 5.433594 115.835938 5.601562 116.054688 5.933594 C 116.285156 6.277344 116.398438 6.707031 116.398438 7.226562 C 116.398438 7.746094 116.265625 8.195312 116 8.574219 C 115.726562 8.953125 115.332031 9.140625 114.816406 9.140625 C 114.652344 9.140625 114.523438 9.132812 114.429688 9.109375 C 114.78125 8.597656 114.960938 8.078125 114.960938 7.550781 C 114.960938 7.179688 114.808594 6.992188 114.507812 6.992188 C 114.269531 6.992188 114.019531 7.128906 113.753906 7.40625 C 113.480469 7.6875 113.222656 8.078125 112.976562 8.574219 C 112.726562 9.078125 112.519531 9.730469 112.359375 10.523438 C 112.1875 11.324219 112.105469 12.191406 112.105469 13.117188 C 112.105469 13.222656 112.128906 13.664062 112.179688 14.441406 C 111.914062 14.464844 111.761719 14.476562 111.714844 14.476562 C 110.808594 14.476562 110.355469 14.027344 110.355469 13.128906 C 110.355469 12.921875 110.464844 12.121094 110.6875 10.734375 C 110.902344 9.339844 111.007812 8.230469 111.007812 7.40625 C 111.007812 6.574219 110.917969 5.8125 110.742188 5.121094 C 111.355469 5.359375 111.78125 5.699219 112.027344 6.136719 C 112.269531 6.582031 112.390625 7.097656 112.390625 7.683594 C 112.390625 8.269531 112.34375 8.835938 112.246094 9.375 Z M 121.382812 6.257812 C 120.761719 6.257812 120.234375 6.613281 119.796875 7.328125 C 119.371094 8.046875 119.085938 8.890625 118.945312 9.855469 L 119.378906 9.855469 C 119.925781 9.855469 120.398438 9.777344 120.804688 9.621094 C 121.203125 9.464844 121.515625 9.265625 121.734375 9.019531 C 122.148438 8.535156 122.355469 7.996094 122.355469 7.394531 C 122.355469 7.050781 122.273438 6.777344 122.113281 6.570312 C 121.949219 6.363281 121.707031 6.257812 121.382812 6.257812 Z M 123.5625 12.570312 C 123.089844 13.351562 122.570312 13.898438 122 14.207031 C 121.433594 14.519531 120.773438 14.675781 120.019531 14.675781 C 119.273438 14.675781 118.621094 14.34375 118.058594 13.675781 C 117.5 13.011719 117.21875 12.078125 117.21875 10.867188 C 117.21875 9.496094 117.585938 8.269531 118.324219 7.195312 C 118.6875 6.671875 119.160156 6.25 119.742188 5.925781 C 120.328125 5.605469 120.96875 5.445312 121.667969 5.445312 C 123.21875 5.445312 123.996094 6.199219 123.996094 7.707031 C 123.996094 8.609375 123.648438 9.320312 122.953125 9.832031 C 122.253906 10.34375 121.445312 10.601562 120.527344 10.601562 C 119.917969 10.601562 119.367188 10.546875 118.878906 10.433594 C 118.871094 10.539062 118.867188 10.699219 118.867188 10.914062 C 118.867188 12.753906 119.410156 13.675781 120.496094 13.675781 C 121.515625 13.675781 122.34375 13.164062 122.988281 12.148438 C 123.371094 12.199219 123.5625 12.339844 123.5625 12.570312 Z M 123.5625 12.570312 "/>
<path style=" stroke:none;fill-rule:nonzero;fill:rgb(11.372549%,11.372549%,10.588235%);fill-opacity:1;" d="M 12.417969 10.492188 L 12.417969 10.46875 C 12.1875 10.054688 11.796875 9.75 11.335938 9.628906 L 11.292969 9.628906 C 11.042969 9.550781 10.785156 9.503906 10.527344 9.480469 C 9.820312 9.386719 9.144531 9.136719 8.546875 8.746094 C 8.445312 8.683594 8.308594 8.714844 8.238281 8.816406 C 8.171875 8.917969 8.191406 9.054688 8.289062 9.128906 C 8.488281 9.257812 8.691406 9.371094 8.90625 9.472656 C 8.90625 9.503906 8.878906 9.535156 8.867188 9.570312 C 8.585938 10.5625 9.15625 11.601562 10.144531 11.890625 C 10.324219 11.941406 10.507812 11.96875 10.691406 11.96875 C 11.253906 11.972656 11.789062 11.710938 12.132812 11.261719 C 12.160156 11.574219 12.140625 11.886719 12.078125 12.191406 C 12.054688 12.25 12.054688 12.320312 12.082031 12.378906 C 12.109375 12.4375 12.160156 12.480469 12.222656 12.5 C 12.246094 12.503906 12.273438 12.503906 12.296875 12.5 C 12.394531 12.5 12.484375 12.4375 12.515625 12.34375 C 12.613281 11.929688 12.636719 11.5 12.585938 11.074219 C 12.570312 10.871094 12.511719 10.671875 12.417969 10.492188 Z M 11.046875 10.03125 C 11.054688 10.082031 11.054688 10.136719 11.046875 10.191406 C 10.984375 10.40625 10.761719 10.53125 10.546875 10.472656 C 10.332031 10.410156 10.207031 10.1875 10.265625 9.972656 C 10.273438 9.953125 10.285156 9.933594 10.296875 9.917969 L 10.480469 9.941406 C 10.671875 9.953125 10.863281 9.984375 11.050781 10.03125 Z M 11.335938 11.34375 C 11.003906 11.515625 10.621094 11.550781 10.265625 11.441406 C 9.515625 11.226562 9.085938 10.441406 9.296875 9.691406 L 9.296875 9.652344 C 9.46875 9.71875 9.644531 9.777344 9.820312 9.824219 L 9.820312 9.839844 C 9.722656 10.15625 9.808594 10.496094 10.042969 10.726562 C 10.28125 10.957031 10.625 11.03125 10.933594 10.917969 C 11.242188 10.808594 11.460938 10.53125 11.496094 10.203125 C 11.683594 10.296875 11.839844 10.4375 11.953125 10.609375 C 11.847656 10.921875 11.628906 11.183594 11.339844 11.34375 Z M 19.667969 9.5625 C 19.667969 9.527344 19.644531 9.5 19.628906 9.464844 C 19.84375 9.367188 20.046875 9.25 20.246094 9.125 C 20.34375 9.050781 20.367188 8.910156 20.296875 8.808594 C 20.226562 8.707031 20.09375 8.675781 19.988281 8.738281 C 19.390625 9.128906 18.714844 9.382812 18.011719 9.476562 C 17.746094 9.496094 17.488281 9.542969 17.234375 9.621094 L 17.199219 9.621094 C 16.738281 9.742188 16.34375 10.050781 16.109375 10.46875 L 16.109375 10.484375 C 16.015625 10.671875 15.957031 10.875 15.945312 11.085938 C 15.890625 11.511719 15.917969 11.941406 16.015625 12.355469 C 16.046875 12.449219 16.132812 12.511719 16.234375 12.511719 C 16.308594 12.515625 16.378906 12.476562 16.425781 12.417969 C 16.46875 12.355469 16.480469 12.277344 16.453125 12.203125 C 16.390625 11.898438 16.371094 11.585938 16.394531 11.277344 C 16.742188 11.722656 17.273438 11.984375 17.839844 11.980469 C 18.023438 11.980469 18.207031 11.957031 18.386719 11.902344 C 18.863281 11.765625 19.269531 11.441406 19.511719 11 C 19.75 10.5625 19.808594 10.042969 19.667969 9.5625 Z M 18.039062 9.941406 L 18.222656 9.917969 C 18.234375 9.933594 18.242188 9.953125 18.25 9.972656 C 18.308594 10.183594 18.1875 10.40625 17.976562 10.464844 C 17.847656 10.503906 17.707031 10.476562 17.605469 10.386719 C 17.503906 10.300781 17.453125 10.164062 17.476562 10.03125 C 17.660156 9.984375 17.851562 9.953125 18.039062 9.941406 Z M 18.261719 11.441406 C 17.90625 11.550781 17.523438 11.515625 17.191406 11.34375 C 16.902344 11.183594 16.683594 10.921875 16.578125 10.609375 C 16.691406 10.433594 16.847656 10.296875 17.03125 10.203125 C 17.035156 10.242188 17.042969 10.28125 17.054688 10.316406 C 17.164062 10.683594 17.5 10.9375 17.882812 10.9375 C 18.144531 10.929688 18.390625 10.804688 18.550781 10.59375 C 18.710938 10.378906 18.761719 10.105469 18.695312 9.851562 L 18.695312 9.832031 C 18.875 9.785156 19.046875 9.726562 19.21875 9.660156 L 19.21875 9.699219 C 19.425781 10.445312 19 11.222656 18.261719 11.441406 Z M 18.261719 11.441406 "/>
<path style=" stroke:none;fill-rule:nonzero;fill:rgb(11.372549%,11.372549%,10.588235%);fill-opacity:1;" d="M 13.136719 10.125 C 13.085938 9.429688 12.519531 8.988281 11.554688 8.914062 C 11.042969 8.847656 10.550781 8.667969 10.113281 8.390625 C 10.007812 8.320312 9.863281 8.347656 9.792969 8.457031 C 9.722656 8.5625 9.753906 8.707031 9.859375 8.777344 C 10.359375 9.097656 10.929688 9.300781 11.519531 9.375 C 11.933594 9.40625 12.636719 9.550781 12.679688 10.15625 C 12.6875 10.277344 12.789062 10.375 12.910156 10.371094 L 12.925781 10.371094 C 13.050781 10.363281 13.144531 10.253906 13.136719 10.125 Z M 17.128906 9.375 C 17.71875 9.300781 18.285156 9.097656 18.789062 8.777344 C 18.894531 8.707031 18.921875 8.5625 18.851562 8.457031 C 18.78125 8.347656 18.640625 8.320312 18.53125 8.390625 C 18.097656 8.671875 17.605469 8.851562 17.089844 8.921875 C 16.132812 8.996094 15.554688 9.4375 15.507812 10.136719 C 15.503906 10.195312 15.523438 10.257812 15.5625 10.304688 C 15.605469 10.351562 15.660156 10.378906 15.722656 10.382812 L 15.738281 10.382812 C 15.859375 10.382812 15.960938 10.289062 15.96875 10.164062 C 16.011719 9.539062 16.726562 9.40625 17.128906 9.375 Z M 9.542969 7.761719 C 9.59375 7.828125 9.675781 7.863281 9.757812 7.851562 C 9.84375 7.835938 9.910156 7.78125 9.941406 7.699219 C 9.96875 7.621094 9.953125 7.53125 9.898438 7.46875 L 8.917969 6.257812 C 8.867188 6.191406 8.78125 6.15625 8.699219 6.167969 C 8.617188 6.183594 8.546875 6.238281 8.519531 6.320312 C 8.488281 6.398438 8.503906 6.488281 8.5625 6.550781 Z M 10.574219 7.089844 C 10.609375 7.179688 10.695312 7.238281 10.789062 7.238281 C 10.863281 7.238281 10.933594 7.203125 10.976562 7.140625 C 11.019531 7.078125 11.03125 7 11.003906 6.929688 L 10.570312 5.792969 C 10.527344 5.671875 10.390625 5.613281 10.273438 5.660156 C 10.15625 5.707031 10.09375 5.839844 10.140625 5.960938 Z M 11.804688 7.125 C 11.925781 7.125 12.027344 7.03125 12.035156 6.914062 L 12.113281 5.929688 C 12.117188 5.867188 12.097656 5.804688 12.058594 5.757812 C 12.019531 5.710938 11.960938 5.683594 11.898438 5.679688 C 11.839844 5.671875 11.777344 5.691406 11.730469 5.730469 C 11.683594 5.773438 11.65625 5.828125 11.652344 5.890625 L 11.574219 6.878906 C 11.570312 6.941406 11.59375 7.003906 11.636719 7.050781 C 11.679688 7.097656 11.742188 7.125 11.804688 7.125 Z M 11.804688 7.125 "/>
<path style=" stroke:none;fill-rule:nonzero;fill:rgb(11.372549%,11.372549%,10.588235%);fill-opacity:1;" d="M 28.199219 15.109375 C 27 14.722656 24.175781 14.757812 21.882812 14.863281 C 23.417969 12.910156 23.417969 11.027344 23.144531 10.136719 C 22.9375 9.472656 22.613281 7.796875 23.027344 7.144531 C 23.101562 7.011719 23.238281 6.921875 23.386719 6.90625 C 23.929688 6.835938 24.027344 6.269531 24.105469 5.816406 C 24.125 5.65625 24.160156 5.496094 24.210938 5.339844 C 24.304688 5.175781 24.433594 5.03125 24.585938 4.917969 C 25.019531 4.570312 25.355469 4.121094 25.566406 3.609375 C 26.054688 2.398438 25.398438 1.804688 25.371094 1.777344 C 25.347656 1.757812 25.316406 1.746094 25.285156 1.738281 L 25.242188 1.738281 C 24.738281 1.605469 24.203125 1.6875 23.761719 1.964844 C 23.554688 2.066406 23.296875 2.191406 22.914062 2.351562 C 22.09375 2.765625 21.097656 2.601562 20.453125 1.941406 C 19.070312 0.605469 18.097656 0.21875 14.28125 0.21875 C 10.464844 0.21875 9.5 0.609375 8.128906 1.941406 C 7.484375 2.601562 6.492188 2.765625 5.671875 2.351562 C 5.382812 2.230469 5.101562 2.101562 4.820312 1.964844 C 4.378906 1.6875 3.84375 1.605469 3.34375 1.738281 L 3.300781 1.738281 C 3.269531 1.746094 3.238281 1.757812 3.214844 1.777344 C 3.1875 1.804688 2.53125 2.398438 3.019531 3.609375 C 3.230469 4.121094 3.566406 4.570312 3.996094 4.917969 C 4.152344 5.03125 4.28125 5.175781 4.371094 5.339844 C 4.40625 5.503906 4.421875 5.664062 4.425781 5.828125 C 4.5 6.285156 4.597656 6.847656 5.140625 6.917969 C 5.292969 6.933594 5.429688 7.023438 5.503906 7.15625 C 5.917969 7.808594 5.59375 9.484375 5.382812 10.148438 C 5.105469 11.039062 5.117188 12.933594 6.648438 14.875 C 4.355469 14.769531 1.53125 14.738281 0.332031 15.121094 C 0.210938 15.160156 0.144531 15.289062 0.183594 15.414062 C 0.222656 15.535156 0.351562 15.601562 0.472656 15.5625 C 1.730469 15.160156 5.085938 15.253906 6.988281 15.359375 L 7.0625 15.359375 L 7.261719 15.570312 C 4.902344 15.605469 3.300781 15.769531 2.496094 16.058594 C 2.417969 16.085938 2.359375 16.15625 2.34375 16.238281 C 2.328125 16.320312 2.359375 16.40625 2.421875 16.460938 C 2.488281 16.511719 2.574219 16.527344 2.652344 16.496094 C 3.445312 16.207031 5.207031 16.046875 7.746094 16.03125 C 7.851562 16.121094 7.964844 16.210938 8.074219 16.300781 C 6.085938 16.414062 2.847656 16.675781 1.617188 17.230469 C 1.511719 17.285156 1.464844 17.417969 1.515625 17.527344 C 1.5625 17.636719 1.6875 17.691406 1.800781 17.652344 C 3.085938 17.085938 6.777344 16.835938 8.632812 16.742188 L 8.941406 16.964844 L 8.972656 16.984375 C 7.039062 17.171875 5.714844 17.417969 5.039062 17.714844 C 4.933594 17.773438 4.886719 17.902344 4.9375 18.011719 C 4.984375 18.125 5.109375 18.179688 5.222656 18.136719 C 5.859375 17.855469 7.207031 17.617188 9.136719 17.433594 C 9.128906 18.003906 9.199219 18.574219 9.34375 19.128906 C 9.847656 20.464844 10.53125 20.792969 11.332031 20.859375 C 11.445312 21.078125 11.605469 21.269531 11.796875 21.417969 C 11.367188 21.8125 11.015625 22.28125 10.757812 22.800781 C 10.710938 22.921875 10.769531 23.054688 10.886719 23.101562 C 11.007812 23.148438 11.140625 23.089844 11.1875 22.96875 C 11.269531 22.753906 11.519531 22.351562 12.199219 21.671875 C 12.394531 21.773438 12.601562 21.855469 12.8125 21.914062 C 12.664062 22.25 12.570312 22.609375 12.53125 22.976562 C 12.527344 23.035156 12.546875 23.097656 12.589844 23.144531 C 12.628906 23.1875 12.6875 23.214844 12.75 23.21875 C 12.871094 23.21875 12.972656 23.125 12.980469 23 C 13.019531 22.660156 13.113281 22.328125 13.257812 22.019531 C 13.925781 22.132812 14.605469 22.132812 15.269531 22.019531 C 15.414062 22.328125 15.507812 22.660156 15.550781 23 C 15.558594 23.125 15.65625 23.21875 15.78125 23.21875 C 15.84375 23.214844 15.898438 23.1875 15.941406 23.144531 C 15.980469 23.097656 16.003906 23.035156 16 22.976562 C 15.964844 22.609375 15.871094 22.25 15.726562 21.910156 C 15.9375 21.851562 16.144531 21.769531 16.339844 21.671875 C 17.019531 22.347656 17.261719 22.75 17.351562 22.964844 C 17.398438 23.085938 17.53125 23.144531 17.652344 23.097656 C 17.769531 23.054688 17.828125 22.917969 17.78125 22.800781 C 17.523438 22.277344 17.171875 21.808594 16.742188 21.417969 C 16.933594 21.265625 17.09375 21.074219 17.207031 20.855469 C 18.007812 20.789062 18.691406 20.464844 19.191406 19.128906 C 19.335938 18.578125 19.402344 18.011719 19.390625 17.441406 C 21.320312 17.625 22.667969 17.867188 23.300781 18.148438 C 23.378906 18.1875 23.472656 18.183594 23.542969 18.132812 C 23.613281 18.082031 23.652344 17.996094 23.640625 17.910156 C 23.628906 17.824219 23.570312 17.753906 23.488281 17.722656 C 22.804688 17.414062 21.457031 17.175781 19.488281 16.988281 L 19.734375 16.816406 L 19.832031 16.746094 C 21.675781 16.839844 25.425781 17.089844 26.726562 17.675781 C 26.839844 17.714844 26.964844 17.660156 27.011719 17.546875 C 27.0625 17.4375 27.015625 17.308594 26.910156 17.25 C 25.660156 16.699219 22.417969 16.441406 20.429688 16.324219 C 20.546875 16.234375 20.660156 16.144531 20.773438 16.050781 C 23.316406 16.066406 25.078125 16.226562 25.875 16.519531 C 25.992188 16.558594 26.121094 16.496094 26.164062 16.375 C 26.203125 16.257812 26.144531 16.128906 26.03125 16.082031 C 25.230469 15.792969 23.628906 15.628906 21.261719 15.59375 L 21.464844 15.378906 L 21.539062 15.378906 C 23.429688 15.285156 26.796875 15.183594 28.054688 15.585938 C 28.183594 15.625 28.324219 15.550781 28.363281 15.417969 C 28.402344 15.285156 28.328125 15.148438 28.199219 15.109375 Z M 15.28125 20.957031 C 15.21875 20.84375 15.078125 20.808594 14.96875 20.871094 C 14.855469 20.933594 14.820312 21.078125 14.882812 21.1875 C 14.933594 21.269531 15.003906 21.40625 15.078125 21.558594 C 14.546875 21.636719 14.007812 21.636719 13.476562 21.558594 C 13.582031 21.339844 13.667969 21.191406 13.671875 21.1875 C 13.734375 21.078125 13.695312 20.933594 13.585938 20.871094 C 13.476562 20.808594 13.335938 20.84375 13.273438 20.957031 C 13.273438 20.972656 13.140625 21.183594 13.003906 21.46875 C 12.585938 21.378906 12.199219 21.164062 11.902344 20.851562 L 12.652344 20.851562 C 13.324219 20.847656 13.945312 20.476562 14.265625 19.878906 C 14.589844 20.476562 15.214844 20.851562 15.890625 20.847656 L 16.640625 20.847656 C 16.339844 21.160156 15.957031 21.375 15.539062 21.464844 C 15.398438 21.1875 15.28125 20.984375 15.269531 20.960938 Z M 20.539062 15.617188 L 20.515625 15.636719 C 20.257812 15.851562 19.972656 16.0625 19.691406 16.253906 L 19.453125 16.253906 C 19.492188 15.726562 19.589844 15.25 19.78125 15.109375 C 19.882812 15.027344 19.902344 14.878906 19.820312 14.777344 C 19.742188 14.675781 19.59375 14.65625 19.492188 14.738281 C 19.183594 14.992188 19.050781 15.554688 18.992188 16.230469 L 18.804688 16.230469 C 18.742188 16.226562 18.683594 16.25 18.636719 16.292969 C 18.59375 16.335938 18.566406 16.394531 18.566406 16.457031 C 18.5625 16.585938 18.664062 16.691406 18.792969 16.695312 L 18.964844 16.695312 L 18.964844 16.921875 L 18.90625 16.921875 C 18.78125 16.914062 18.671875 17.007812 18.660156 17.132812 C 18.648438 17.261719 18.742188 17.371094 18.867188 17.382812 L 18.933594 17.382812 C 18.941406 17.910156 18.882812 18.433594 18.761719 18.945312 C 18.328125 20.105469 17.808594 20.351562 17.054688 20.386719 L 15.890625 20.386719 C 15.132812 20.386719 14.511719 19.773438 14.5 19.007812 C 14.605469 18.90625 14.726562 18.820312 14.855469 18.746094 C 15.164062 18.550781 15.613281 18.277344 15.449219 17.886719 C 15.390625 17.75 15.429688 17.683594 15.960938 17.320312 L 16.152344 17.1875 C 16.382812 17.066406 16.535156 16.832031 16.550781 16.570312 C 16.539062 16.367188 16.429688 16.183594 16.261719 16.074219 C 16.15625 16.011719 16.019531 16.042969 15.953125 16.144531 C 15.890625 16.25 15.921875 16.382812 16.019531 16.453125 C 16.042969 16.472656 16.097656 16.523438 16.101562 16.566406 C 16.105469 16.609375 16.046875 16.695312 15.898438 16.800781 L 15.707031 16.933594 C 15.207031 17.273438 14.8125 17.550781 15.03125 18.035156 C 15.007812 18.113281 14.757812 18.265625 14.621094 18.347656 C 14.5 18.417969 14.382812 18.496094 14.273438 18.582031 C 14.164062 18.496094 14.046875 18.417969 13.925781 18.347656 C 13.78125 18.265625 13.644531 18.167969 13.519531 18.058594 C 13.734375 17.542969 13.339844 17.273438 12.839844 16.929688 L 12.652344 16.796875 C 12.503906 16.691406 12.449219 16.609375 12.449219 16.5625 C 12.449219 16.519531 12.503906 16.46875 12.527344 16.449219 C 12.628906 16.378906 12.652344 16.238281 12.585938 16.136719 C 12.519531 16.03125 12.386719 16 12.277344 16.058594 C 12.109375 16.167969 12 16.351562 11.984375 16.554688 C 12.003906 16.816406 12.15625 17.050781 12.386719 17.171875 L 12.578125 17.308594 C 13.113281 17.667969 13.148438 17.734375 13.089844 17.871094 C 12.925781 18.265625 13.363281 18.535156 13.683594 18.730469 C 13.808594 18.804688 13.925781 18.882812 14.039062 18.96875 C 14.035156 19.742188 13.414062 20.367188 12.644531 20.367188 L 12.164062 20.367188 C 11.019531 20.394531 10.320312 20.410156 9.773438 18.925781 C 9.648438 18.417969 9.589844 17.890625 9.601562 17.367188 L 9.664062 17.367188 C 9.792969 17.355469 9.886719 17.242188 9.875 17.113281 C 9.863281 16.984375 9.753906 16.890625 9.625 16.902344 L 9.582031 16.902344 L 9.582031 16.671875 L 9.753906 16.671875 C 9.882812 16.671875 9.984375 16.570312 9.984375 16.441406 C 9.984375 16.3125 9.882812 16.207031 9.753906 16.207031 L 9.566406 16.207031 C 9.507812 15.53125 9.386719 14.972656 9.066406 14.714844 C 8.957031 14.628906 8.800781 14.644531 8.710938 14.753906 C 8.625 14.859375 8.640625 15.019531 8.75 15.109375 C 8.9375 15.257812 9.027344 15.726562 9.074219 16.253906 L 8.78125 16.253906 C 8.519531 16.058594 8.257812 15.851562 8.019531 15.636719 C 8.007812 15.621094 7.992188 15.605469 7.972656 15.59375 C 7.894531 15.523438 7.8125 15.449219 7.738281 15.378906 L 8.457031 15.425781 L 8.476562 15.425781 C 8.601562 15.429688 8.710938 15.332031 8.714844 15.203125 C 8.71875 15.074219 8.621094 14.96875 8.492188 14.960938 C 8.492188 14.960938 8.011719 14.925781 7.261719 14.886719 C 5.589844 12.972656 5.546875 11.113281 5.8125 10.269531 C 5.8125 10.246094 6.527344 7.914062 5.882812 6.890625 C 5.734375 6.648438 5.484375 6.488281 5.207031 6.449219 C 5.015625 6.421875 4.953125 6.140625 4.898438 5.738281 C 4.871094 5.546875 4.828125 5.355469 4.761719 5.171875 C 4.644531 4.933594 4.472656 4.726562 4.261719 4.566406 C 3.882812 4.269531 3.589844 3.878906 3.40625 3.433594 C 3.097656 2.703125 3.335938 2.300781 3.4375 2.171875 C 3.664062 2.152344 3.886719 2.210938 4.074219 2.339844 C 4.097656 2.355469 6.386719 4.046875 7.390625 4.046875 L 7.5 4.046875 C 6.578125 4.710938 6.035156 5.5625 6.035156 6.394531 C 6.035156 6.519531 6.140625 6.625 6.265625 6.625 C 6.394531 6.625 6.496094 6.519531 6.496094 6.394531 C 6.496094 5.523438 7.296875 4.570312 8.535156 3.960938 C 9.019531 3.890625 9.484375 3.734375 9.914062 3.5 C 9.988281 3.460938 10.035156 3.386719 10.035156 3.300781 C 10.039062 3.21875 9.996094 3.140625 9.921875 3.097656 C 9.851562 3.054688 9.761719 3.054688 9.6875 3.097656 C 8.96875 3.453125 8.167969 3.621094 7.363281 3.585938 C 6.980469 3.585938 6.246094 3.210938 5.5625 2.796875 C 6.535156 3.234375 7.671875 3.023438 8.421875 2.261719 C 9.652344 1.078125 10.417969 0.667969 14.265625 0.667969 C 18.113281 0.667969 18.878906 1.082031 20.105469 2.261719 C 20.574219 2.742188 21.214844 3.011719 21.882812 3.019531 C 22.242188 3.011719 22.601562 2.941406 22.941406 2.808594 C 22.261719 3.21875 21.523438 3.589844 21.144531 3.589844 C 20.339844 3.628906 19.539062 3.460938 18.820312 3.101562 C 18.707031 3.042969 18.570312 3.082031 18.507812 3.195312 C 18.449219 3.304688 18.484375 3.445312 18.59375 3.507812 C 19.027344 3.742188 19.496094 3.902344 19.980469 3.972656 C 21.210938 4.59375 22.019531 5.519531 22.019531 6.40625 C 22.019531 6.53125 22.125 6.636719 22.25 6.636719 C 22.378906 6.636719 22.480469 6.53125 22.480469 6.40625 C 22.480469 5.570312 21.9375 4.71875 21.019531 4.058594 L 21.152344 4.058594 C 22.160156 4.058594 24.449219 2.371094 24.472656 2.351562 C 24.65625 2.222656 24.878906 2.164062 25.105469 2.183594 C 25.207031 2.316406 25.425781 2.71875 25.136719 3.445312 C 24.953125 3.890625 24.65625 4.28125 24.28125 4.582031 C 24.066406 4.738281 23.894531 4.945312 23.777344 5.183594 C 23.714844 5.367188 23.667969 5.558594 23.644531 5.753906 C 23.574219 6.164062 23.515625 6.4375 23.335938 6.460938 C 23.050781 6.496094 22.792969 6.660156 22.644531 6.910156 C 21.996094 7.933594 22.707031 10.269531 22.714844 10.289062 C 22.984375 11.132812 22.9375 12.992188 21.261719 14.902344 C 20.527344 14.945312 20.035156 14.980469 20.035156 14.980469 C 19.90625 14.984375 19.808594 15.09375 19.8125 15.222656 C 19.816406 15.351562 19.925781 15.449219 20.050781 15.445312 L 20.070312 15.445312 L 20.785156 15.398438 C 20.722656 15.46875 20.628906 15.542969 20.539062 15.617188 Z M 20.539062 15.617188 "/>
<path style=" stroke:none;fill-rule:nonzero;fill:rgb(11.372549%,11.372549%,10.588235%);fill-opacity:1;" d="M 18.808594 7.847656 C 18.875 7.847656 18.941406 7.816406 18.984375 7.761719 L 19.964844 6.550781 C 20.019531 6.488281 20.039062 6.398438 20.007812 6.320312 C 19.980469 6.238281 19.910156 6.183594 19.828125 6.167969 C 19.742188 6.15625 19.660156 6.191406 19.609375 6.257812 L 18.628906 7.46875 C 18.574219 7.539062 18.5625 7.632812 18.601562 7.714844 C 18.636719 7.792969 18.71875 7.847656 18.808594 7.847656 Z M 17.667969 7.226562 C 17.695312 7.230469 17.722656 7.230469 17.753906 7.226562 C 17.847656 7.226562 17.933594 7.164062 17.96875 7.078125 L 18.402344 5.9375 C 18.445312 5.820312 18.386719 5.683594 18.269531 5.636719 C 18.148438 5.59375 18.015625 5.652344 17.96875 5.769531 L 17.535156 6.910156 C 17.507812 6.96875 17.507812 7.035156 17.535156 7.097656 C 17.558594 7.15625 17.609375 7.203125 17.667969 7.226562 Z M 16.726562 7.128906 C 16.785156 7.125 16.84375 7.09375 16.882812 7.046875 C 16.921875 7 16.941406 6.941406 16.9375 6.878906 L 16.859375 5.890625 C 16.851562 5.761719 16.738281 5.667969 16.609375 5.679688 C 16.484375 5.6875 16.390625 5.800781 16.398438 5.929688 L 16.476562 6.914062 C 16.480469 6.976562 16.507812 7.035156 16.554688 7.074219 C 16.601562 7.113281 16.664062 7.132812 16.726562 7.128906 Z M 16.726562 7.128906 "/>
<path style=" stroke:none;fill-rule:nonzero;fill:rgb(11.372549%,11.372549%,10.588235%);fill-opacity:1;" d="M 10.9375 17.839844 C 10.9375 18.019531 10.792969 18.167969 10.613281 18.167969 C 10.4375 18.167969 10.292969 18.019531 10.292969 17.839844 C 10.292969 17.664062 10.4375 17.515625 10.613281 17.515625 C 10.792969 17.515625 10.9375 17.664062 10.9375 17.839844 Z M 10.9375 17.839844 "/>
<path style=" stroke:none;fill-rule:nonzero;fill:rgb(11.372549%,11.372549%,10.588235%);fill-opacity:1;" d="M 11.046875 18.945312 C 11.046875 19.125 10.902344 19.269531 10.722656 19.269531 C 10.542969 19.269531 10.398438 19.125 10.398438 18.945312 C 10.398438 18.765625 10.542969 18.621094 10.722656 18.621094 C 10.902344 18.621094 11.046875 18.765625 11.046875 18.945312 Z M 11.046875 18.945312 "/>
<path style=" stroke:none;fill-rule:nonzero;fill:rgb(11.372549%,11.372549%,10.588235%);fill-opacity:1;" d="M 11.886719 19.671875 C 11.886719 19.851562 11.742188 19.996094 11.566406 19.996094 C 11.386719 19.996094 11.242188 19.851562 11.242188 19.671875 C 11.242188 19.492188 11.386719 19.347656 11.566406 19.347656 C 11.742188 19.347656 11.886719 19.492188 11.886719 19.671875 Z M 11.886719 19.671875 "/>
<path style=" stroke:none;fill-rule:nonzero;fill:rgb(11.372549%,11.372549%,10.588235%);fill-opacity:1;" d="M 12.171875 18.542969 C 12.171875 18.722656 12.027344 18.867188 11.847656 18.867188 C 11.667969 18.867188 11.523438 18.722656 11.523438 18.542969 C 11.523438 18.363281 11.667969 18.21875 11.847656 18.21875 C 12.027344 18.21875 12.171875 18.363281 12.171875 18.542969 Z M 12.171875 18.542969 "/>
<path style=" stroke:none;fill-rule:nonzero;fill:rgb(11.372549%,11.372549%,10.588235%);fill-opacity:1;" d="M 13.070312 19.113281 C 13.070312 19.292969 12.925781 19.4375 12.746094 19.4375 C 12.566406 19.4375 12.421875 19.292969 12.421875 19.113281 C 12.421875 18.933594 12.566406 18.789062 12.746094 18.789062 C 12.925781 18.789062 13.070312 18.933594 13.070312 19.113281 Z M 13.070312 19.113281 "/>
<path style=" stroke:none;fill-rule:nonzero;fill:rgb(11.372549%,11.372549%,10.588235%);fill-opacity:1;" d="M 18.238281 17.839844 C 18.238281 18.019531 18.09375 18.167969 17.914062 18.167969 C 17.738281 18.167969 17.59375 18.019531 17.59375 17.839844 C 17.59375 17.664062 17.738281 17.515625 17.914062 17.515625 C 18.09375 17.515625 18.238281 17.664062 18.238281 17.839844 Z M 18.238281 17.839844 "/>
<path style=" stroke:none;fill-rule:nonzero;fill:rgb(11.372549%,11.372549%,10.588235%);fill-opacity:1;" d="M 18.128906 18.945312 C 18.128906 19.125 17.984375 19.269531 17.808594 19.269531 C 17.628906 19.269531 17.484375 19.125 17.484375 18.945312 C 17.484375 18.765625 17.628906 18.621094 17.808594 18.621094 C 17.984375 18.621094 18.128906 18.765625 18.128906 18.945312 Z M 18.128906 18.945312 "/>
<path style=" stroke:none;fill-rule:nonzero;fill:rgb(11.372549%,11.372549%,10.588235%);fill-opacity:1;" d="M 17.289062 19.671875 C 17.289062 19.851562 17.144531 19.996094 16.964844 19.996094 C 16.785156 19.996094 16.640625 19.851562 16.640625 19.671875 C 16.640625 19.492188 16.785156 19.347656 16.964844 19.347656 C 17.144531 19.347656 17.289062 19.492188 17.289062 19.671875 Z M 17.289062 19.671875 "/>
<path style=" stroke:none;fill-rule:nonzero;fill:rgb(11.372549%,11.372549%,10.588235%);fill-opacity:1;" d="M 17.003906 18.542969 C 17.003906 18.722656 16.859375 18.867188 16.683594 18.867188 C 16.503906 18.867188 16.359375 18.722656 16.359375 18.542969 C 16.359375 18.363281 16.503906 18.21875 16.683594 18.21875 C 16.859375 18.21875 17.003906 18.363281 17.003906 18.542969 Z M 17.003906 18.542969 "/>
<path style=" stroke:none;fill-rule:nonzero;fill:rgb(11.372549%,11.372549%,10.588235%);fill-opacity:1;" d="M 16.105469 19.113281 C 16.105469 19.292969 15.960938 19.4375 15.785156 19.4375 C 15.605469 19.4375 15.460938 19.292969 15.460938 19.113281 C 15.460938 18.933594 15.605469 18.789062 15.785156 18.789062 C 15.960938 18.789062 16.105469 18.933594 16.105469 19.113281 Z M 16.105469 19.113281 "/>
<path style=" stroke:none;fill-rule:nonzero;fill:rgb(11.372549%,11.372549%,10.588235%);fill-opacity:1;" d="M 15.359375 12.480469 C 15.296875 12.472656 15.238281 12.492188 15.191406 12.535156 C 15.144531 12.574219 15.113281 12.628906 15.109375 12.691406 C 15.023438 13.328125 14.726562 13.914062 14.265625 14.359375 C 13.804688 13.914062 13.507812 13.324219 13.425781 12.6875 C 13.414062 12.5625 13.304688 12.464844 13.175781 12.476562 C 13.050781 12.484375 12.953125 12.597656 12.964844 12.726562 C 13.074219 13.550781 13.484375 14.304688 14.109375 14.847656 C 14.152344 14.882812 14.203125 14.898438 14.253906 14.902344 C 14.308594 14.898438 14.359375 14.882812 14.398438 14.847656 C 15.027344 14.304688 15.4375 13.550781 15.546875 12.726562 C 15.558594 12.609375 15.476562 12.5 15.359375 12.480469 Z M 11.304688 13.3125 C 11.195312 13.253906 11.058594 13.292969 10.996094 13.398438 C 10.933594 13.503906 10.855469 13.621094 10.773438 13.742188 C 10.359375 14.339844 9.738281 15.25 10.613281 16.214844 C 10.703125 16.289062 10.832031 16.289062 10.917969 16.210938 C 11.003906 16.132812 11.019531 16 10.953125 15.90625 C 10.371094 15.273438 10.667969 14.722656 11.148438 14.019531 C 11.238281 13.886719 11.324219 13.761719 11.394531 13.644531 C 11.425781 13.589844 11.4375 13.523438 11.421875 13.460938 C 11.402344 13.398438 11.363281 13.34375 11.304688 13.3125 Z M 17.550781 13.398438 C 17.488281 13.285156 17.347656 13.25 17.238281 13.3125 C 17.125 13.375 17.089844 13.519531 17.152344 13.628906 C 17.21875 13.746094 17.304688 13.871094 17.394531 14.003906 C 17.878906 14.707031 18.171875 15.257812 17.59375 15.890625 C 17.523438 15.949219 17.496094 16.042969 17.519531 16.128906 C 17.542969 16.214844 17.613281 16.28125 17.703125 16.296875 C 17.789062 16.3125 17.878906 16.273438 17.929688 16.199219 C 18.808594 15.242188 18.183594 14.34375 17.773438 13.726562 C 17.695312 13.621094 17.617188 13.503906 17.550781 13.398438 Z M 11.769531 16.34375 C 11.808594 16.222656 11.742188 16.09375 11.621094 16.050781 C 11.5 16.011719 11.371094 16.082031 11.332031 16.203125 C 11.152344 16.777344 11.398438 17.398438 11.917969 17.691406 C 12.027344 17.757812 12.171875 17.71875 12.234375 17.609375 C 12.296875 17.496094 12.257812 17.355469 12.148438 17.292969 C 11.816406 17.105469 11.660156 16.710938 11.769531 16.34375 Z M 16.609375 17.683594 C 17.128906 17.386719 17.371094 16.765625 17.195312 16.191406 C 17.15625 16.070312 17.027344 16.003906 16.90625 16.042969 C 16.785156 16.082031 16.714844 16.214844 16.753906 16.335938 C 16.863281 16.699219 16.707031 17.085938 16.378906 17.273438 C 16.265625 17.335938 16.230469 17.480469 16.292969 17.589844 C 16.355469 17.699219 16.496094 17.738281 16.609375 17.675781 Z M 15.152344 16.390625 C 14.925781 16.648438 14.601562 16.796875 14.261719 16.796875 C 13.921875 16.796875 13.601562 16.648438 13.375 16.390625 C 13.292969 16.292969 13.144531 16.28125 13.042969 16.367188 C 12.945312 16.453125 12.933594 16.601562 13.019531 16.699219 C 13.332031 17.066406 13.785156 17.273438 14.261719 17.273438 C 14.738281 17.273438 15.191406 17.066406 15.503906 16.699219 C 15.589844 16.601562 15.578125 16.453125 15.480469 16.367188 C 15.382812 16.28125 15.230469 16.292969 15.148438 16.390625 Z M 8.273438 11.867188 C 8.199219 11.816406 8.105469 11.816406 8.03125 11.859375 C 7.953125 11.902344 7.910156 11.984375 7.914062 12.070312 C 7.917969 12.160156 7.972656 12.234375 8.050781 12.273438 C 8.859375 12.71875 9.210938 13.382812 9.210938 13.621094 C 9.210938 13.75 9.3125 13.851562 9.441406 13.851562 C 9.566406 13.851562 9.671875 13.75 9.671875 13.621094 C 9.671875 13.140625 9.148438 12.351562 8.273438 11.867188 Z M 20.597656 11.960938 C 20.535156 11.851562 20.398438 11.808594 20.289062 11.867188 C 19.40625 12.351562 18.878906 13.140625 18.878906 13.625 C 18.878906 13.75 18.980469 13.855469 19.109375 13.855469 C 19.234375 13.855469 19.339844 13.75 19.339844 13.625 C 19.339844 13.386719 19.6875 12.71875 20.496094 12.273438 C 20.554688 12.246094 20.59375 12.195312 20.613281 12.136719 C 20.632812 12.078125 20.625 12.015625 20.597656 11.960938 Z M 20.597656 11.960938 "/>
<path style=" stroke:none;fill-rule:nonzero;fill:rgb(0%,0%,0%);fill-opacity:1;" d="M 35.097656 17.625 L 34.816406 16.917969 L 33.742188 16.917969 L 33.464844 17.625 L 33.285156 17.625 L 34.179688 15.367188 L 34.382812 15.367188 L 35.277344 17.625 Z M 33.804688 16.761719 L 34.753906 16.761719 L 34.363281 15.777344 L 34.28125 15.535156 L 34.277344 15.535156 L 34.195312 15.769531 Z M 38.203125 16.519531 L 39.125 16.519531 L 39.125 17.625 L 38.988281 17.625 L 38.980469 17.230469 C 38.921875 17.367188 38.824219 17.472656 38.695312 17.550781 C 38.5625 17.621094 38.402344 17.660156 38.210938 17.660156 C 38.003906 17.660156 37.828125 17.613281 37.675781 17.515625 C 37.519531 17.421875 37.402344 17.289062 37.320312 17.113281 C 37.238281 16.9375 37.195312 16.730469 37.195312 16.496094 C 37.195312 16.261719 37.238281 16.054688 37.324219 15.878906 C 37.410156 15.703125 37.527344 15.570312 37.683594 15.476562 C 37.835938 15.378906 38.015625 15.332031 38.21875 15.332031 C 38.449219 15.332031 38.636719 15.378906 38.78125 15.46875 C 38.925781 15.5625 39.035156 15.699219 39.109375 15.886719 L 38.949219 15.96875 C 38.898438 15.8125 38.8125 15.691406 38.6875 15.613281 C 38.566406 15.53125 38.410156 15.488281 38.21875 15.488281 C 38.050781 15.488281 37.90625 15.53125 37.777344 15.613281 C 37.652344 15.691406 37.550781 15.808594 37.484375 15.960938 C 37.410156 16.113281 37.375 16.289062 37.375 16.496094 C 37.375 16.808594 37.449219 17.054688 37.597656 17.234375 C 37.75 17.414062 37.953125 17.503906 38.214844 17.503906 C 38.378906 17.503906 38.519531 17.46875 38.632812 17.40625 C 38.746094 17.339844 38.828125 17.253906 38.882812 17.148438 C 38.9375 17.042969 38.964844 16.929688 38.964844 16.804688 L 38.964844 16.683594 L 38.203125 16.683594 Z M 41.597656 17.46875 L 43.011719 17.46875 L 43.011719 17.625 L 41.425781 17.625 L 41.425781 15.367188 L 42.960938 15.367188 L 42.960938 15.523438 L 41.597656 15.523438 L 41.597656 16.394531 L 42.671875 16.394531 L 42.671875 16.558594 L 41.597656 16.558594 Z M 46.929688 15.367188 L 46.929688 17.625 L 46.71875 17.625 L 45.53125 15.855469 L 45.363281 15.554688 L 45.359375 15.554688 L 45.371094 15.835938 L 45.371094 17.625 L 45.207031 17.625 L 45.207031 15.367188 L 45.421875 15.367188 L 46.609375 17.136719 L 46.777344 17.4375 L 46.769531 17.15625 L 46.769531 15.367188 Z M 51.113281 17.054688 C 51.050781 17.246094 50.941406 17.394531 50.785156 17.5 C 50.625 17.605469 50.4375 17.660156 50.21875 17.660156 C 50.015625 17.660156 49.832031 17.613281 49.679688 17.515625 C 49.523438 17.421875 49.40625 17.289062 49.320312 17.113281 C 49.238281 16.9375 49.199219 16.730469 49.199219 16.496094 C 49.199219 16.261719 49.238281 16.054688 49.320312 15.878906 C 49.40625 15.703125 49.523438 15.570312 49.679688 15.476562 C 49.832031 15.378906 50.011719 15.332031 50.210938 15.332031 C 50.660156 15.332031 50.953125 15.519531 51.085938 15.890625 L 50.917969 15.96875 C 50.867188 15.808594 50.78125 15.6875 50.667969 15.609375 C 50.550781 15.53125 50.402344 15.488281 50.222656 15.488281 C 50.054688 15.488281 49.910156 15.53125 49.78125 15.613281 C 49.652344 15.691406 49.554688 15.808594 49.480469 15.960938 C 49.414062 16.113281 49.378906 16.289062 49.378906 16.496094 C 49.378906 16.703125 49.414062 16.878906 49.480469 17.03125 C 49.550781 17.183594 49.648438 17.300781 49.773438 17.378906 C 49.898438 17.460938 50.046875 17.503906 50.21875 17.503906 C 50.398438 17.503906 50.554688 17.457031 50.679688 17.367188 C 50.804688 17.277344 50.894531 17.152344 50.945312 16.988281 Z M 53.484375 17.46875 L 54.902344 17.46875 L 54.902344 17.625 L 53.316406 17.625 L 53.316406 15.367188 L 54.847656 15.367188 L 54.847656 15.523438 L 53.484375 15.523438 L 53.484375 16.394531 L 54.5625 16.394531 L 54.5625 16.558594 L 53.484375 16.558594 Z M 60.566406 15.367188 C 60.925781 15.367188 61.203125 15.460938 61.394531 15.652344 C 61.589844 15.84375 61.6875 16.117188 61.6875 16.480469 C 61.6875 16.847656 61.589844 17.132812 61.394531 17.328125 C 61.203125 17.527344 60.925781 17.625 60.566406 17.625 L 59.859375 17.625 L 59.859375 15.367188 Z M 60.582031 17.46875 C 60.882812 17.46875 61.109375 17.382812 61.269531 17.210938 C 61.429688 17.042969 61.511719 16.796875 61.511719 16.480469 C 61.511719 16.171875 61.429688 15.9375 61.269531 15.773438 C 61.109375 15.605469 60.882812 15.523438 60.582031 15.523438 L 60.03125 15.523438 L 60.03125 17.46875 Z M 64.125 17.46875 L 65.542969 17.46875 L 65.542969 17.625 L 63.957031 17.625 L 63.957031 15.367188 L 65.488281 15.367188 L 65.488281 15.523438 L 64.125 15.523438 L 64.125 16.394531 L 65.203125 16.394531 L 65.203125 16.558594 L 64.125 16.558594 Z M 71.613281 16.042969 L 71.160156 17.625 L 70.949219 17.625 L 70.25 15.367188 L 70.433594 15.367188 L 71.054688 17.484375 L 71.644531 15.367188 L 71.839844 15.367188 L 72.429688 17.488281 L 73.058594 15.367188 L 73.230469 15.367188 L 72.53125 17.625 L 72.320312 17.625 L 71.867188 16.042969 L 71.742188 15.554688 L 71.738281 15.554688 Z M 75.554688 17.46875 L 76.976562 17.46875 L 76.976562 17.625 L 75.386719 17.625 L 75.386719 15.367188 L 76.921875 15.367188 L 76.921875 15.523438 L 75.554688 15.523438 L 75.554688 16.394531 L 76.636719 16.394531 L 76.636719 16.558594 L 75.554688 16.558594 Z M 79.167969 17.625 L 79.167969 15.367188 L 79.960938 15.367188 C 80.207031 15.367188 80.390625 15.417969 80.511719 15.519531 C 80.632812 15.625 80.691406 15.773438 80.691406 15.964844 C 80.691406 16.097656 80.65625 16.210938 80.585938 16.300781 C 80.511719 16.390625 80.410156 16.453125 80.28125 16.480469 C 80.425781 16.503906 80.542969 16.5625 80.625 16.660156 C 80.710938 16.757812 80.753906 16.875 80.753906 17.015625 C 80.753906 17.210938 80.683594 17.359375 80.546875 17.464844 C 80.410156 17.570312 80.214844 17.625 79.960938 17.625 Z M 79.339844 16.40625 L 79.964844 16.40625 C 80.328125 16.40625 80.511719 16.261719 80.511719 15.964844 C 80.511719 15.671875 80.328125 15.523438 79.964844 15.523438 L 79.339844 15.523438 Z M 79.339844 17.46875 L 79.992188 17.46875 C 80.183594 17.46875 80.328125 17.429688 80.425781 17.351562 C 80.523438 17.273438 80.570312 17.160156 80.570312 17.015625 C 80.570312 16.867188 80.523438 16.757812 80.425781 16.679688 C 80.328125 16.601562 80.183594 16.566406 79.992188 16.566406 L 79.339844 16.566406 Z M 86.488281 15.367188 C 86.847656 15.367188 87.125 15.460938 87.316406 15.652344 C 87.511719 15.84375 87.609375 16.117188 87.609375 16.480469 C 87.609375 16.847656 87.511719 17.132812 87.316406 17.328125 C 87.125 17.527344 86.847656 17.625 86.488281 17.625 L 85.78125 17.625 L 85.78125 15.367188 Z M 86.503906 17.46875 C 86.804688 17.46875 87.03125 17.382812 87.191406 17.210938 C 87.351562 17.042969 87.429688 16.796875 87.429688 16.480469 C 87.429688 16.171875 87.351562 15.9375 87.191406 15.773438 C 87.03125 15.605469 86.804688 15.523438 86.503906 15.523438 L 85.953125 15.523438 L 85.953125 17.46875 Z M 90.046875 17.46875 L 91.464844 17.46875 L 91.464844 17.625 L 89.878906 17.625 L 89.878906 15.367188 L 91.410156 15.367188 L 91.410156 15.523438 L 90.046875 15.523438 L 90.046875 16.394531 L 91.125 16.394531 L 91.125 16.558594 L 90.046875 16.558594 Z M 94.351562 15.332031 C 94.773438 15.332031 95.054688 15.5 95.199219 15.832031 L 95.054688 15.953125 C 94.996094 15.789062 94.910156 15.671875 94.796875 15.597656 C 94.6875 15.527344 94.539062 15.488281 94.355469 15.488281 C 94.222656 15.488281 94.109375 15.511719 94.011719 15.554688 C 93.914062 15.59375 93.839844 15.648438 93.789062 15.71875 C 93.738281 15.789062 93.710938 15.871094 93.710938 15.957031 C 93.710938 16.046875 93.734375 16.117188 93.777344 16.171875 C 93.820312 16.230469 93.894531 16.28125 93.996094 16.320312 C 94.101562 16.359375 94.242188 16.394531 94.425781 16.429688 C 94.714844 16.476562 94.921875 16.550781 95.046875 16.648438 C 95.167969 16.742188 95.226562 16.875 95.226562 17.042969 C 95.226562 17.164062 95.195312 17.269531 95.125 17.367188 C 95.054688 17.457031 94.957031 17.53125 94.828125 17.582031 C 94.699219 17.632812 94.550781 17.660156 94.386719 17.660156 C 94.152344 17.660156 93.953125 17.613281 93.789062 17.515625 C 93.625 17.421875 93.515625 17.289062 93.457031 17.117188 L 93.609375 17 C 93.652344 17.164062 93.746094 17.289062 93.878906 17.375 C 94.019531 17.460938 94.1875 17.503906 94.390625 17.503906 C 94.585938 17.503906 94.742188 17.460938 94.867188 17.382812 C 94.992188 17.304688 95.054688 17.191406 95.054688 17.054688 C 95.054688 16.933594 95.003906 16.835938 94.898438 16.765625 C 94.800781 16.695312 94.625 16.636719 94.375 16.597656 C 94.164062 16.558594 94 16.515625 93.875 16.460938 C 93.753906 16.410156 93.667969 16.34375 93.613281 16.265625 C 93.558594 16.191406 93.53125 16.09375 93.53125 15.976562 C 93.53125 15.859375 93.566406 15.753906 93.632812 15.65625 C 93.699219 15.554688 93.792969 15.476562 93.917969 15.421875 C 94.042969 15.363281 94.1875 15.332031 94.351562 15.332031 Z M 97.632812 15.367188 L 97.632812 17.625 L 97.460938 17.625 L 97.460938 15.367188 Z M 100.90625 16.519531 L 101.824219 16.519531 L 101.824219 17.625 L 101.6875 17.625 L 101.683594 17.230469 C 101.621094 17.367188 101.527344 17.472656 101.394531 17.550781 C 101.265625 17.621094 101.105469 17.660156 100.910156 17.660156 C 100.707031 17.660156 100.527344 17.613281 100.375 17.515625 C 100.222656 17.421875 100.105469 17.289062 100.023438 17.113281 C 99.941406 16.9375 99.898438 16.730469 99.898438 16.496094 C 99.898438 16.261719 99.941406 16.054688 100.027344 15.878906 C 100.109375 15.703125 100.230469 15.570312 100.386719 15.476562 C 100.539062 15.378906 100.71875 15.332031 100.921875 15.332031 C 101.148438 15.332031 101.335938 15.378906 101.484375 15.46875 C 101.628906 15.5625 101.738281 15.699219 101.808594 15.886719 L 101.652344 15.96875 C 101.601562 15.8125 101.511719 15.691406 101.390625 15.613281 C 101.265625 15.53125 101.109375 15.488281 100.921875 15.488281 C 100.753906 15.488281 100.605469 15.53125 100.480469 15.613281 C 100.351562 15.691406 100.253906 15.808594 100.183594 15.960938 C 100.113281 16.113281 100.078125 16.289062 100.078125 16.496094 C 100.078125 16.808594 100.152344 17.054688 100.300781 17.234375 C 100.449219 17.414062 100.65625 17.503906 100.917969 17.503906 C 101.082031 17.503906 101.21875 17.46875 101.332031 17.40625 C 101.445312 17.339844 101.53125 17.253906 101.585938 17.148438 C 101.640625 17.042969 101.667969 16.929688 101.667969 16.804688 L 101.667969 16.683594 L 100.90625 16.683594 Z M 105.851562 15.367188 L 105.851562 17.625 L 105.640625 17.625 L 104.449219 15.855469 L 104.285156 15.554688 L 104.28125 15.554688 L 104.289062 15.835938 L 104.289062 17.625 L 104.128906 17.625 L 104.128906 15.367188 L 104.339844 15.367188 L 105.53125 17.136719 L 105.699219 17.4375 L 105.691406 17.15625 L 105.691406 15.367188 Z M 105.851562 15.367188 "/>
</g>
</svg>
